<mxfile host="app.diagrams.net" modified="2024-05-30T11:40:25.541Z" agent="Mozilla/5.0 (Windows NT 10.0; Win64; x64; rv:126.0) Gecko/20100101 Firefox/126.0" etag="M6bDhgd6Xb73tu9mb8qP" version="24.4.9" type="device">
  <diagram name="Use Case Diagram" id="uMqA1R6x-6Gs1QEI-oIA">
    <mxGraphModel dx="3313" dy="1949" grid="0" gridSize="10" guides="1" tooltips="1" connect="1" arrows="1" fold="1" page="0" pageScale="1" pageWidth="827" pageHeight="1169" math="0" shadow="0">
      <root>
        <mxCell id="0" />
        <mxCell id="1" parent="0" />
        <mxCell id="685X49SJKfuo1PtqeQpH-2" style="edgeStyle=orthogonalEdgeStyle;rounded=1;orthogonalLoop=1;jettySize=auto;html=1;entryX=1;entryY=0.75;entryDx=0;entryDy=0;elbow=vertical;strokeColor=default;align=center;verticalAlign=middle;fontFamily=Helvetica;fontSize=11;fontColor=default;labelBackgroundColor=default;endArrow=baseDash;endFill=0;endSize=0;curved=0;exitX=0.897;exitY=0;exitDx=0;exitDy=0;exitPerimeter=0;" edge="1" parent="1" source="685X49SJKfuo1PtqeQpH-107" target="685X49SJKfuo1PtqeQpH-121">
          <mxGeometry relative="1" as="geometry">
            <mxPoint x="250" y="-190" as="targetPoint" />
            <mxPoint x="281" y="493" as="sourcePoint" />
            <Array as="points">
              <mxPoint x="247" y="477" />
              <mxPoint x="308" y="477" />
              <mxPoint x="308" y="1" />
            </Array>
          </mxGeometry>
        </mxCell>
        <mxCell id="685X49SJKfuo1PtqeQpH-3" value="1" style="edgeLabel;html=1;align=center;verticalAlign=middle;resizable=0;points=[];" vertex="1" connectable="0" parent="685X49SJKfuo1PtqeQpH-2">
          <mxGeometry x="-0.968" relative="1" as="geometry">
            <mxPoint x="-7" y="2" as="offset" />
          </mxGeometry>
        </mxCell>
        <mxCell id="685X49SJKfuo1PtqeQpH-4" value="makes" style="edgeLabel;html=1;align=center;verticalAlign=middle;resizable=0;points=[];" vertex="1" connectable="0" parent="685X49SJKfuo1PtqeQpH-2">
          <mxGeometry x="-0.8652" y="1" relative="1" as="geometry">
            <mxPoint x="32" y="-113" as="offset" />
          </mxGeometry>
        </mxCell>
        <mxCell id="685X49SJKfuo1PtqeQpH-5" value="0..*" style="edgeLabel;html=1;align=center;verticalAlign=middle;resizable=0;points=[];" vertex="1" connectable="0" parent="685X49SJKfuo1PtqeQpH-2">
          <mxGeometry x="0.9615" y="-2" relative="1" as="geometry">
            <mxPoint x="1" y="-7" as="offset" />
          </mxGeometry>
        </mxCell>
        <mxCell id="685X49SJKfuo1PtqeQpH-6" style="rounded=1;orthogonalLoop=1;jettySize=auto;html=1;exitX=-0.002;exitY=1.133;exitDx=0;exitDy=0;strokeColor=default;align=center;verticalAlign=middle;fontFamily=Helvetica;fontSize=11;fontColor=default;labelBackgroundColor=default;elbow=vertical;endArrow=baseDash;endFill=0;endSize=0;exitPerimeter=0;entryX=1.012;entryY=0.55;entryDx=0;entryDy=0;entryPerimeter=0;" edge="1" parent="1" source="685X49SJKfuo1PtqeQpH-109" target="685X49SJKfuo1PtqeQpH-51">
          <mxGeometry relative="1" as="geometry">
            <mxPoint x="3.75" y="332" as="sourcePoint" />
            <mxPoint x="-164" y="586" as="targetPoint" />
          </mxGeometry>
        </mxCell>
        <mxCell id="685X49SJKfuo1PtqeQpH-7" value="1" style="edgeLabel;html=1;align=center;verticalAlign=middle;resizable=0;points=[];" vertex="1" connectable="0" parent="685X49SJKfuo1PtqeQpH-6">
          <mxGeometry x="-0.9341" relative="1" as="geometry">
            <mxPoint x="1" y="-7" as="offset" />
          </mxGeometry>
        </mxCell>
        <mxCell id="685X49SJKfuo1PtqeQpH-8" value="1" style="edgeLabel;html=1;align=center;verticalAlign=middle;resizable=0;points=[];" vertex="1" connectable="0" parent="685X49SJKfuo1PtqeQpH-6">
          <mxGeometry x="0.9253" relative="1" as="geometry">
            <mxPoint x="-3" y="-10" as="offset" />
          </mxGeometry>
        </mxCell>
        <mxCell id="685X49SJKfuo1PtqeQpH-9" value="has" style="edgeLabel;html=1;align=center;verticalAlign=middle;resizable=0;points=[];" vertex="1" connectable="0" parent="685X49SJKfuo1PtqeQpH-6">
          <mxGeometry x="-0.7583" y="-1" relative="1" as="geometry">
            <mxPoint x="8" y="-7" as="offset" />
          </mxGeometry>
        </mxCell>
        <mxCell id="685X49SJKfuo1PtqeQpH-10" style="rounded=1;orthogonalLoop=1;jettySize=auto;html=1;strokeColor=default;align=center;verticalAlign=middle;fontFamily=Helvetica;fontSize=11;fontColor=default;labelBackgroundColor=default;elbow=vertical;endArrow=baseDash;endFill=0;endSize=0;exitX=0.996;exitY=0.353;exitDx=0;exitDy=0;exitPerimeter=0;entryX=0;entryY=0.25;entryDx=0;entryDy=0;" edge="1" parent="1" source="685X49SJKfuo1PtqeQpH-109" target="685X49SJKfuo1PtqeQpH-57">
          <mxGeometry relative="1" as="geometry">
            <mxPoint x="337" y="476" as="sourcePoint" />
            <mxPoint x="567" y="656" as="targetPoint" />
          </mxGeometry>
        </mxCell>
        <mxCell id="685X49SJKfuo1PtqeQpH-11" value="1" style="edgeLabel;html=1;align=center;verticalAlign=middle;resizable=0;points=[];" vertex="1" connectable="0" parent="685X49SJKfuo1PtqeQpH-10">
          <mxGeometry x="-0.8503" y="-1" relative="1" as="geometry">
            <mxPoint x="-9" y="-11" as="offset" />
          </mxGeometry>
        </mxCell>
        <mxCell id="685X49SJKfuo1PtqeQpH-12" value="0..*" style="edgeLabel;html=1;align=center;verticalAlign=middle;resizable=0;points=[];" vertex="1" connectable="0" parent="685X49SJKfuo1PtqeQpH-10">
          <mxGeometry x="0.8466" y="-1" relative="1" as="geometry">
            <mxPoint x="2" y="-8" as="offset" />
          </mxGeometry>
        </mxCell>
        <mxCell id="685X49SJKfuo1PtqeQpH-13" value="creates" style="edgeLabel;html=1;align=center;verticalAlign=middle;resizable=0;points=[];" vertex="1" connectable="0" parent="685X49SJKfuo1PtqeQpH-10">
          <mxGeometry x="-0.2712" y="-1" relative="1" as="geometry">
            <mxPoint x="-23" y="-10" as="offset" />
          </mxGeometry>
        </mxCell>
        <mxCell id="685X49SJKfuo1PtqeQpH-14" style="edgeStyle=orthogonalEdgeStyle;curved=0;rounded=1;orthogonalLoop=1;jettySize=auto;html=1;entryX=0;entryY=0.5;entryDx=0;entryDy=0;strokeColor=default;align=center;verticalAlign=middle;fontFamily=Helvetica;fontSize=11;fontColor=default;labelBackgroundColor=default;elbow=vertical;endArrow=baseDash;endFill=0;endSize=0;exitX=0.996;exitY=0.044;exitDx=0;exitDy=0;exitPerimeter=0;" edge="1" parent="1" source="685X49SJKfuo1PtqeQpH-107" target="685X49SJKfuo1PtqeQpH-86">
          <mxGeometry relative="1" as="geometry">
            <mxPoint x="267" y="385" as="sourcePoint" />
          </mxGeometry>
        </mxCell>
        <mxCell id="685X49SJKfuo1PtqeQpH-15" value="1" style="edgeLabel;html=1;align=center;verticalAlign=middle;resizable=0;points=[];" vertex="1" connectable="0" parent="685X49SJKfuo1PtqeQpH-14">
          <mxGeometry x="-0.8817" y="1" relative="1" as="geometry">
            <mxPoint x="-11" y="-7" as="offset" />
          </mxGeometry>
        </mxCell>
        <mxCell id="685X49SJKfuo1PtqeQpH-16" value="creates" style="edgeLabel;html=1;align=center;verticalAlign=middle;resizable=0;points=[];" vertex="1" connectable="0" parent="685X49SJKfuo1PtqeQpH-14">
          <mxGeometry x="-0.6834" y="1" relative="1" as="geometry">
            <mxPoint y="-7" as="offset" />
          </mxGeometry>
        </mxCell>
        <mxCell id="685X49SJKfuo1PtqeQpH-17" value="0..*" style="edgeLabel;html=1;align=center;verticalAlign=middle;resizable=0;points=[];" vertex="1" connectable="0" parent="685X49SJKfuo1PtqeQpH-14">
          <mxGeometry x="0.9119" y="1" relative="1" as="geometry">
            <mxPoint x="3" y="-7" as="offset" />
          </mxGeometry>
        </mxCell>
        <mxCell id="685X49SJKfuo1PtqeQpH-18" style="rounded=1;orthogonalLoop=1;jettySize=auto;html=1;entryX=1;entryY=0.068;entryDx=0;entryDy=0;strokeColor=default;align=center;verticalAlign=middle;fontFamily=Helvetica;fontSize=11;fontColor=default;labelBackgroundColor=default;elbow=vertical;endArrow=baseDash;endFill=0;endSize=0;entryPerimeter=0;exitX=0;exitY=0.75;exitDx=0;exitDy=0;" edge="1" parent="1" source="685X49SJKfuo1PtqeQpH-107" target="685X49SJKfuo1PtqeQpH-97">
          <mxGeometry relative="1" as="geometry">
            <mxPoint x="51" y="928" as="sourcePoint" />
            <mxPoint x="-221" y="1040.01" as="targetPoint" />
          </mxGeometry>
        </mxCell>
        <mxCell id="685X49SJKfuo1PtqeQpH-19" value="1" style="edgeLabel;html=1;align=center;verticalAlign=middle;resizable=0;points=[];" vertex="1" connectable="0" parent="685X49SJKfuo1PtqeQpH-18">
          <mxGeometry x="-0.8501" y="-1" relative="1" as="geometry">
            <mxPoint x="4" y="-9" as="offset" />
          </mxGeometry>
        </mxCell>
        <mxCell id="685X49SJKfuo1PtqeQpH-20" value="0..*" style="edgeLabel;html=1;align=center;verticalAlign=middle;resizable=0;points=[];" vertex="1" connectable="0" parent="685X49SJKfuo1PtqeQpH-18">
          <mxGeometry x="0.8695" y="1" relative="1" as="geometry">
            <mxPoint x="1" y="-10" as="offset" />
          </mxGeometry>
        </mxCell>
        <mxCell id="685X49SJKfuo1PtqeQpH-21" value="creates" style="edgeLabel;html=1;align=center;verticalAlign=middle;resizable=0;points=[];" vertex="1" connectable="0" parent="685X49SJKfuo1PtqeQpH-18">
          <mxGeometry x="-0.6395" relative="1" as="geometry">
            <mxPoint x="-12" y="-13" as="offset" />
          </mxGeometry>
        </mxCell>
        <mxCell id="685X49SJKfuo1PtqeQpH-22" style="rounded=1;orthogonalLoop=1;jettySize=auto;html=1;exitX=0.5;exitY=0;exitDx=0;exitDy=0;entryX=0.5;entryY=1;entryDx=0;entryDy=0;strokeColor=default;align=center;verticalAlign=middle;fontFamily=Helvetica;fontSize=11;fontColor=default;labelBackgroundColor=default;elbow=vertical;endArrow=baseDash;endFill=0;endSize=0;" edge="1" parent="1" source="685X49SJKfuo1PtqeQpH-26" target="685X49SJKfuo1PtqeQpH-121">
          <mxGeometry relative="1" as="geometry">
            <mxPoint x="160" y="245" as="targetPoint" />
          </mxGeometry>
        </mxCell>
        <mxCell id="685X49SJKfuo1PtqeQpH-23" value="verifies" style="edgeLabel;html=1;align=center;verticalAlign=middle;resizable=0;points=[];" vertex="1" connectable="0" parent="685X49SJKfuo1PtqeQpH-22">
          <mxGeometry x="-0.7653" relative="1" as="geometry">
            <mxPoint x="24" y="-50" as="offset" />
          </mxGeometry>
        </mxCell>
        <mxCell id="685X49SJKfuo1PtqeQpH-24" value="1" style="edgeLabel;html=1;align=center;verticalAlign=middle;resizable=0;points=[];" vertex="1" connectable="0" parent="685X49SJKfuo1PtqeQpH-22">
          <mxGeometry x="-0.8306" relative="1" as="geometry">
            <mxPoint x="7" y="1" as="offset" />
          </mxGeometry>
        </mxCell>
        <mxCell id="685X49SJKfuo1PtqeQpH-25" value="0..*" style="edgeLabel;html=1;align=center;verticalAlign=middle;resizable=0;points=[];" vertex="1" connectable="0" parent="685X49SJKfuo1PtqeQpH-22">
          <mxGeometry x="0.8578" relative="1" as="geometry">
            <mxPoint x="13" as="offset" />
          </mxGeometry>
        </mxCell>
        <mxCell id="685X49SJKfuo1PtqeQpH-26" value="Admin" style="swimlane;fontStyle=1;align=center;verticalAlign=top;childLayout=stackLayout;horizontal=1;startSize=26;horizontalStack=0;resizeParent=1;resizeLast=0;collapsible=1;marginBottom=0;rounded=0;shadow=0;strokeWidth=1;fillColor=#dae8fc;strokeColor=#6c8ebf;" vertex="1" parent="1">
          <mxGeometry x="80" y="348" width="160" height="138" as="geometry">
            <mxRectangle x="340" y="380" width="170" height="26" as="alternateBounds" />
          </mxGeometry>
        </mxCell>
        <mxCell id="685X49SJKfuo1PtqeQpH-27" value="-expertise:String" style="text;html=1;align=left;verticalAlign=middle;resizable=0;points=[];autosize=1;strokeColor=none;fillColor=none;" vertex="1" parent="685X49SJKfuo1PtqeQpH-26">
          <mxGeometry y="26" width="160" height="26" as="geometry" />
        </mxCell>
        <mxCell id="685X49SJKfuo1PtqeQpH-28" value="-admin_level:int" style="text;html=1;align=left;verticalAlign=middle;resizable=0;points=[];autosize=1;strokeColor=none;fillColor=none;" vertex="1" parent="685X49SJKfuo1PtqeQpH-26">
          <mxGeometry y="52" width="160" height="26" as="geometry" />
        </mxCell>
        <mxCell id="685X49SJKfuo1PtqeQpH-29" value="" style="line;strokeWidth=1;fillColor=none;align=left;verticalAlign=middle;spacingTop=-1;spacingLeft=3;spacingRight=3;rotatable=0;labelPosition=right;points=[];portConstraint=eastwest;strokeColor=inherit;" vertex="1" parent="685X49SJKfuo1PtqeQpH-26">
          <mxGeometry y="78" width="160" height="8" as="geometry" />
        </mxCell>
        <mxCell id="685X49SJKfuo1PtqeQpH-30" value="+getLevel():int" style="text;html=1;align=left;verticalAlign=middle;resizable=0;points=[];autosize=1;strokeColor=none;fillColor=none;" vertex="1" parent="685X49SJKfuo1PtqeQpH-26">
          <mxGeometry y="86" width="160" height="26" as="geometry" />
        </mxCell>
        <mxCell id="685X49SJKfuo1PtqeQpH-31" value="+getExpertise():String" style="text;html=1;align=left;verticalAlign=middle;resizable=0;points=[];autosize=1;strokeColor=none;fillColor=none;" vertex="1" parent="685X49SJKfuo1PtqeQpH-26">
          <mxGeometry y="112" width="160" height="26" as="geometry" />
        </mxCell>
        <mxCell id="685X49SJKfuo1PtqeQpH-32" value="" style="endArrow=block;endSize=36;endFill=0;shadow=0;strokeWidth=1;rounded=1;edgeStyle=orthogonalEdgeStyle;elbow=vertical;curved=0;entryX=0.5;entryY=0;entryDx=0;entryDy=0;" edge="1" parent="1" source="685X49SJKfuo1PtqeQpH-26" target="685X49SJKfuo1PtqeQpH-107">
          <mxGeometry width="160" relative="1" as="geometry">
            <mxPoint x="-220" y="473" as="sourcePoint" />
            <mxPoint x="189.5" y="300" as="targetPoint" />
          </mxGeometry>
        </mxCell>
        <mxCell id="685X49SJKfuo1PtqeQpH-33" value="HistoricWalk" style="swimlane;fontStyle=1;align=center;verticalAlign=top;childLayout=stackLayout;horizontal=1;startSize=26;horizontalStack=0;resizeParent=1;resizeLast=0;collapsible=1;marginBottom=0;rounded=0;shadow=0;strokeWidth=1;fillColor=#dae8fc;strokeColor=#6c8ebf;" vertex="1" parent="1">
          <mxGeometry x="-838.5" y="-175" width="237" height="350" as="geometry">
            <mxRectangle x="230" y="140" width="160" height="26" as="alternateBounds" />
          </mxGeometry>
        </mxCell>
        <mxCell id="685X49SJKfuo1PtqeQpH-34" value="-title:String" style="text;html=1;align=left;verticalAlign=middle;resizable=0;points=[];autosize=1;strokeColor=none;fillColor=none;" vertex="1" parent="685X49SJKfuo1PtqeQpH-33">
          <mxGeometry y="26" width="237" height="26" as="geometry" />
        </mxCell>
        <mxCell id="685X49SJKfuo1PtqeQpH-35" value="-introductory_text:String" style="text;html=1;align=left;verticalAlign=middle;resizable=0;points=[];autosize=1;strokeColor=none;fillColor=none;" vertex="1" parent="685X49SJKfuo1PtqeQpH-33">
          <mxGeometry y="52" width="237" height="26" as="geometry" />
        </mxCell>
        <mxCell id="685X49SJKfuo1PtqeQpH-36" value="-area:String" style="text;html=1;align=left;verticalAlign=middle;resizable=0;points=[];autosize=1;strokeColor=none;fillColor=none;" vertex="1" parent="685X49SJKfuo1PtqeQpH-33">
          <mxGeometry y="78" width="237" height="26" as="geometry" />
        </mxCell>
        <mxCell id="685X49SJKfuo1PtqeQpH-37" value="-walk_nodes:ArrayList&amp;lt;HistoricPoint&amp;gt;" style="text;html=1;align=left;verticalAlign=middle;resizable=0;points=[];autosize=1;strokeColor=none;fillColor=none;" vertex="1" parent="685X49SJKfuo1PtqeQpH-33">
          <mxGeometry y="104" width="237" height="26" as="geometry" />
        </mxCell>
        <mxCell id="685X49SJKfuo1PtqeQpH-38" value="-sound_clips:ArrayList&amp;lt;File&amp;gt;" style="text;html=1;align=left;verticalAlign=middle;resizable=0;points=[];autosize=1;strokeColor=none;fillColor=none;" vertex="1" parent="685X49SJKfuo1PtqeQpH-33">
          <mxGeometry y="130" width="237" height="26" as="geometry" />
        </mxCell>
        <mxCell id="685X49SJKfuo1PtqeQpH-39" value="-contributor:User" style="text;html=1;align=left;verticalAlign=middle;resizable=0;points=[];autosize=1;strokeColor=none;fillColor=none;" vertex="1" parent="685X49SJKfuo1PtqeQpH-33">
          <mxGeometry y="156" width="237" height="26" as="geometry" />
        </mxCell>
        <mxCell id="685X49SJKfuo1PtqeQpH-40" value="-approved_by:Admin" style="text;html=1;align=left;verticalAlign=middle;resizable=0;points=[];autosize=1;strokeColor=none;fillColor=none;" vertex="1" parent="685X49SJKfuo1PtqeQpH-33">
          <mxGeometry y="182" width="237" height="26" as="geometry" />
        </mxCell>
        <mxCell id="685X49SJKfuo1PtqeQpH-41" value="" style="line;strokeWidth=1;fillColor=none;align=left;verticalAlign=middle;spacingTop=-1;spacingLeft=3;spacingRight=3;rotatable=0;labelPosition=right;points=[];portConstraint=eastwest;strokeColor=inherit;" vertex="1" parent="685X49SJKfuo1PtqeQpH-33">
          <mxGeometry y="208" width="237" height="8" as="geometry" />
        </mxCell>
        <mxCell id="685X49SJKfuo1PtqeQpH-42" value="+storeInDatabase():void" style="text;html=1;align=left;verticalAlign=middle;resizable=0;points=[];autosize=1;strokeColor=none;fillColor=none;" vertex="1" parent="685X49SJKfuo1PtqeQpH-33">
          <mxGeometry y="216" width="237" height="26" as="geometry" />
        </mxCell>
        <mxCell id="685X49SJKfuo1PtqeQpH-43" value="+getTitle():String" style="text;html=1;align=left;verticalAlign=middle;resizable=0;points=[];autosize=1;strokeColor=none;fillColor=none;" vertex="1" parent="685X49SJKfuo1PtqeQpH-33">
          <mxGeometry y="242" width="237" height="26" as="geometry" />
        </mxCell>
        <mxCell id="685X49SJKfuo1PtqeQpH-44" value="+getText():String" style="text;html=1;align=left;verticalAlign=middle;resizable=0;points=[];autosize=1;strokeColor=none;fillColor=none;" vertex="1" parent="685X49SJKfuo1PtqeQpH-33">
          <mxGeometry y="268" width="237" height="26" as="geometry" />
        </mxCell>
        <mxCell id="685X49SJKfuo1PtqeQpH-45" value="+getWalkNodes():ArrayList&amp;lt;HistoricPoint&amp;gt;" style="text;html=1;align=left;verticalAlign=middle;resizable=0;points=[];autosize=1;strokeColor=none;fillColor=none;" vertex="1" parent="685X49SJKfuo1PtqeQpH-33">
          <mxGeometry y="294" width="237" height="26" as="geometry" />
        </mxCell>
        <mxCell id="685X49SJKfuo1PtqeQpH-46" value="+getSoundClip(int):File" style="text;html=1;align=left;verticalAlign=middle;resizable=0;points=[];autosize=1;strokeColor=none;fillColor=none;" vertex="1" parent="685X49SJKfuo1PtqeQpH-33">
          <mxGeometry y="320" width="237" height="26" as="geometry" />
        </mxCell>
        <mxCell id="685X49SJKfuo1PtqeQpH-47" style="rounded=1;orthogonalLoop=1;jettySize=auto;html=1;exitX=0.5;exitY=0;exitDx=0;exitDy=0;entryX=0.5;entryY=1;entryDx=0;entryDy=0;endSize=36;endArrow=diamond;endFill=0;" edge="1" parent="1" source="685X49SJKfuo1PtqeQpH-196" target="685X49SJKfuo1PtqeQpH-33">
          <mxGeometry relative="1" as="geometry">
            <mxPoint x="-690" y="498.9999999999998" as="sourcePoint" />
            <mxPoint x="-690" y="269" as="targetPoint" />
          </mxGeometry>
        </mxCell>
        <mxCell id="685X49SJKfuo1PtqeQpH-48" value="2..*" style="edgeLabel;html=1;align=center;verticalAlign=middle;resizable=0;points=[];" vertex="1" connectable="0" parent="685X49SJKfuo1PtqeQpH-47">
          <mxGeometry x="-0.6884" y="-2" relative="1" as="geometry">
            <mxPoint x="7" y="4" as="offset" />
          </mxGeometry>
        </mxCell>
        <mxCell id="685X49SJKfuo1PtqeQpH-49" value="1" style="edgeLabel;html=1;align=center;verticalAlign=middle;resizable=0;points=[];" vertex="1" connectable="0" parent="685X49SJKfuo1PtqeQpH-47">
          <mxGeometry x="-0.1405" y="-1" relative="1" as="geometry">
            <mxPoint x="9" y="-41" as="offset" />
          </mxGeometry>
        </mxCell>
        <mxCell id="685X49SJKfuo1PtqeQpH-50" value="VisitingsHistory" style="swimlane;fontStyle=1;align=center;verticalAlign=top;childLayout=stackLayout;horizontal=1;startSize=30;horizontalStack=0;resizeParent=1;resizeLast=0;collapsible=1;marginBottom=0;rounded=0;shadow=0;strokeWidth=1;fillColor=#dae8fc;strokeColor=#6c8ebf;" vertex="1" parent="1">
          <mxGeometry x="-436" y="560" width="265" height="168" as="geometry">
            <mxRectangle x="550" y="140" width="160" height="26" as="alternateBounds" />
          </mxGeometry>
        </mxCell>
        <mxCell id="685X49SJKfuo1PtqeQpH-51" value="-visitings_history_user:User" style="text;html=1;align=left;verticalAlign=middle;resizable=0;points=[];autosize=1;strokeColor=none;fillColor=none;" vertex="1" parent="685X49SJKfuo1PtqeQpH-50">
          <mxGeometry y="30" width="265" height="26" as="geometry" />
        </mxCell>
        <mxCell id="685X49SJKfuo1PtqeQpH-52" value="-visited_historic_points:ArrayList&amp;lt;HistoricPoint&amp;gt;" style="text;html=1;align=left;verticalAlign=middle;resizable=0;points=[];autosize=1;strokeColor=none;fillColor=none;" vertex="1" parent="685X49SJKfuo1PtqeQpH-50">
          <mxGeometry y="56" width="265" height="26" as="geometry" />
        </mxCell>
        <mxCell id="685X49SJKfuo1PtqeQpH-53" value="" style="line;strokeWidth=1;fillColor=none;align=left;verticalAlign=middle;spacingTop=-1;spacingLeft=3;spacingRight=3;rotatable=0;labelPosition=right;points=[];portConstraint=eastwest;strokeColor=inherit;" vertex="1" parent="685X49SJKfuo1PtqeQpH-50">
          <mxGeometry y="82" width="265" height="8" as="geometry" />
        </mxCell>
        <mxCell id="685X49SJKfuo1PtqeQpH-54" value="+getHistoricPoint(Location):HistoricPoint" style="text;html=1;align=left;verticalAlign=middle;resizable=0;points=[];autosize=1;strokeColor=none;fillColor=none;" vertex="1" parent="685X49SJKfuo1PtqeQpH-50">
          <mxGeometry y="90" width="265" height="26" as="geometry" />
        </mxCell>
        <mxCell id="685X49SJKfuo1PtqeQpH-55" value="+deleteHistoricPoint(Location):void" style="text;html=1;align=left;verticalAlign=middle;resizable=0;points=[];autosize=1;strokeColor=none;fillColor=none;" vertex="1" parent="685X49SJKfuo1PtqeQpH-50">
          <mxGeometry y="116" width="265" height="26" as="geometry" />
        </mxCell>
        <mxCell id="685X49SJKfuo1PtqeQpH-56" value="+modifyInDatabase():void" style="text;html=1;align=left;verticalAlign=middle;resizable=0;points=[];autosize=1;strokeColor=none;fillColor=none;" vertex="1" parent="685X49SJKfuo1PtqeQpH-50">
          <mxGeometry y="142" width="265" height="26" as="geometry" />
        </mxCell>
        <mxCell id="685X49SJKfuo1PtqeQpH-57" value="Tour" style="swimlane;fontStyle=1;align=center;verticalAlign=top;childLayout=stackLayout;horizontal=1;startSize=30;horizontalStack=0;resizeParent=1;resizeLast=0;collapsible=1;marginBottom=0;rounded=0;shadow=0;strokeWidth=1;fillColor=#dae8fc;strokeColor=#6c8ebf;" vertex="1" parent="1">
          <mxGeometry x="467" y="650" width="212" height="480" as="geometry">
            <mxRectangle x="550" y="140" width="160" height="26" as="alternateBounds" />
          </mxGeometry>
        </mxCell>
        <mxCell id="685X49SJKfuo1PtqeQpH-58" value="-title:String" style="text;html=1;align=left;verticalAlign=middle;resizable=0;points=[];autosize=1;strokeColor=none;fillColor=none;" vertex="1" parent="685X49SJKfuo1PtqeQpH-57">
          <mxGeometry y="30" width="212" height="26" as="geometry" />
        </mxCell>
        <mxCell id="685X49SJKfuo1PtqeQpH-59" value="-description:String" style="text;html=1;align=left;verticalAlign=middle;resizable=0;points=[];autosize=1;strokeColor=none;fillColor=none;" vertex="1" parent="685X49SJKfuo1PtqeQpH-57">
          <mxGeometry y="56" width="212" height="26" as="geometry" />
        </mxCell>
        <mxCell id="685X49SJKfuo1PtqeQpH-60" value="-language:String" style="text;html=1;align=left;verticalAlign=middle;resizable=0;points=[];autosize=1;strokeColor=none;fillColor=none;" vertex="1" parent="685X49SJKfuo1PtqeQpH-57">
          <mxGeometry y="82" width="212" height="26" as="geometry" />
        </mxCell>
        <mxCell id="685X49SJKfuo1PtqeQpH-61" value="-tour_nodes:ArrayList&amp;lt;HistoricPoint&amp;gt;" style="text;html=1;align=left;verticalAlign=middle;resizable=0;points=[];autosize=1;strokeColor=none;fillColor=none;" vertex="1" parent="685X49SJKfuo1PtqeQpH-57">
          <mxGeometry y="108" width="212" height="26" as="geometry" />
        </mxCell>
        <mxCell id="685X49SJKfuo1PtqeQpH-62" value="-duration:float" style="text;html=1;align=left;verticalAlign=middle;resizable=0;points=[];autosize=1;strokeColor=none;fillColor=none;" vertex="1" parent="685X49SJKfuo1PtqeQpH-57">
          <mxGeometry y="134" width="212" height="26" as="geometry" />
        </mxCell>
        <mxCell id="685X49SJKfuo1PtqeQpH-63" value="-date: String" style="text;html=1;align=left;verticalAlign=middle;resizable=0;points=[];autosize=1;strokeColor=none;fillColor=none;" vertex="1" parent="685X49SJKfuo1PtqeQpH-57">
          <mxGeometry y="160" width="212" height="26" as="geometry" />
        </mxCell>
        <mxCell id="685X49SJKfuo1PtqeQpH-64" value="-seats:int" style="text;html=1;align=left;verticalAlign=middle;resizable=0;points=[];autosize=1;strokeColor=none;fillColor=none;" vertex="1" parent="685X49SJKfuo1PtqeQpH-57">
          <mxGeometry y="186" width="212" height="26" as="geometry" />
        </mxCell>
        <mxCell id="685X49SJKfuo1PtqeQpH-65" value="-available_seats:int" style="text;html=1;align=left;verticalAlign=middle;resizable=0;points=[];autosize=1;strokeColor=none;fillColor=none;" vertex="1" parent="685X49SJKfuo1PtqeQpH-57">
          <mxGeometry y="212" width="212" height="26" as="geometry" />
        </mxCell>
        <mxCell id="685X49SJKfuo1PtqeQpH-66" value="-tour_guide:User" style="text;html=1;align=left;verticalAlign=middle;resizable=0;points=[];autosize=1;strokeColor=none;fillColor=none;" vertex="1" parent="685X49SJKfuo1PtqeQpH-57">
          <mxGeometry y="238" width="212" height="26" as="geometry" />
        </mxCell>
        <mxCell id="685X49SJKfuo1PtqeQpH-67" value="" style="line;strokeWidth=1;fillColor=none;align=left;verticalAlign=middle;spacingTop=-1;spacingLeft=3;spacingRight=3;rotatable=0;labelPosition=right;points=[];portConstraint=eastwest;strokeColor=inherit;" vertex="1" parent="685X49SJKfuo1PtqeQpH-57">
          <mxGeometry y="264" width="212" height="8" as="geometry" />
        </mxCell>
        <mxCell id="685X49SJKfuo1PtqeQpH-68" value="+getTitle():String" style="text;html=1;align=left;verticalAlign=middle;resizable=0;points=[];autosize=1;strokeColor=none;fillColor=none;" vertex="1" parent="685X49SJKfuo1PtqeQpH-57">
          <mxGeometry y="272" width="212" height="26" as="geometry" />
        </mxCell>
        <mxCell id="685X49SJKfuo1PtqeQpH-69" value="+getDescription():String" style="text;html=1;align=left;verticalAlign=middle;resizable=0;points=[];autosize=1;strokeColor=none;fillColor=none;" vertex="1" parent="685X49SJKfuo1PtqeQpH-57">
          <mxGeometry y="298" width="212" height="26" as="geometry" />
        </mxCell>
        <mxCell id="685X49SJKfuo1PtqeQpH-70" value="+getLanguage():String" style="text;html=1;align=left;verticalAlign=middle;resizable=0;points=[];autosize=1;strokeColor=none;fillColor=none;" vertex="1" parent="685X49SJKfuo1PtqeQpH-57">
          <mxGeometry y="324" width="212" height="26" as="geometry" />
        </mxCell>
        <mxCell id="685X49SJKfuo1PtqeQpH-71" value="+getDuration():float" style="text;html=1;align=left;verticalAlign=middle;resizable=0;points=[];autosize=1;strokeColor=none;fillColor=none;" vertex="1" parent="685X49SJKfuo1PtqeQpH-57">
          <mxGeometry y="350" width="212" height="26" as="geometry" />
        </mxCell>
        <mxCell id="685X49SJKfuo1PtqeQpH-72" value="+getTourGuide():User" style="text;html=1;align=left;verticalAlign=middle;resizable=0;points=[];autosize=1;strokeColor=none;fillColor=none;" vertex="1" parent="685X49SJKfuo1PtqeQpH-57">
          <mxGeometry y="376" width="212" height="26" as="geometry" />
        </mxCell>
        <mxCell id="685X49SJKfuo1PtqeQpH-73" value="+getDate():String" style="text;html=1;align=left;verticalAlign=middle;resizable=0;points=[];autosize=1;strokeColor=none;fillColor=none;" vertex="1" parent="685X49SJKfuo1PtqeQpH-57">
          <mxGeometry y="402" width="212" height="26" as="geometry" />
        </mxCell>
        <mxCell id="685X49SJKfuo1PtqeQpH-74" value="+getAvailableSeats():int" style="text;html=1;align=left;verticalAlign=middle;resizable=0;points=[];autosize=1;strokeColor=none;fillColor=none;" vertex="1" parent="685X49SJKfuo1PtqeQpH-57">
          <mxGeometry y="428" width="212" height="26" as="geometry" />
        </mxCell>
        <mxCell id="685X49SJKfuo1PtqeQpH-75" value="+updateAvailableSeats(int):void" style="text;html=1;align=left;verticalAlign=middle;resizable=0;points=[];autosize=1;strokeColor=none;fillColor=none;" vertex="1" parent="685X49SJKfuo1PtqeQpH-57">
          <mxGeometry y="454" width="212" height="26" as="geometry" />
        </mxCell>
        <mxCell id="685X49SJKfuo1PtqeQpH-76" style="edgeStyle=none;curved=1;rounded=0;orthogonalLoop=1;jettySize=auto;html=1;exitX=0.5;exitY=0;exitDx=0;exitDy=0;entryX=0.5;entryY=1;entryDx=0;entryDy=0;fontSize=12;startSize=8;endSize=8;endArrow=none;endFill=0;" edge="1" parent="1" source="685X49SJKfuo1PtqeQpH-80" target="685X49SJKfuo1PtqeQpH-57">
          <mxGeometry relative="1" as="geometry" />
        </mxCell>
        <mxCell id="685X49SJKfuo1PtqeQpH-77" value="1" style="edgeLabel;html=1;align=center;verticalAlign=middle;resizable=0;points=[];fontSize=12;" vertex="1" connectable="0" parent="685X49SJKfuo1PtqeQpH-76">
          <mxGeometry x="0.8214" y="-1" relative="1" as="geometry">
            <mxPoint x="5" as="offset" />
          </mxGeometry>
        </mxCell>
        <mxCell id="685X49SJKfuo1PtqeQpH-78" value="*" style="edgeLabel;html=1;align=center;verticalAlign=middle;resizable=0;points=[];fontSize=12;" vertex="1" connectable="0" parent="685X49SJKfuo1PtqeQpH-76">
          <mxGeometry x="-0.8333" relative="1" as="geometry">
            <mxPoint x="6" y="-2" as="offset" />
          </mxGeometry>
        </mxCell>
        <mxCell id="685X49SJKfuo1PtqeQpH-79" value="refers" style="edgeLabel;html=1;align=center;verticalAlign=middle;resizable=0;points=[];fontSize=12;" vertex="1" connectable="0" parent="685X49SJKfuo1PtqeQpH-76">
          <mxGeometry x="0.0238" y="-1" relative="1" as="geometry">
            <mxPoint x="16" y="-3" as="offset" />
          </mxGeometry>
        </mxCell>
        <mxCell id="685X49SJKfuo1PtqeQpH-80" value="Reservation" style="swimlane;fontStyle=1;align=center;verticalAlign=top;childLayout=stackLayout;horizontal=1;startSize=30;horizontalStack=0;resizeParent=1;resizeLast=0;collapsible=1;marginBottom=0;rounded=0;shadow=0;strokeWidth=1;fillColor=#dae8fc;strokeColor=#6c8ebf;" vertex="1" parent="1">
          <mxGeometry x="493.88" y="1237" width="160" height="143" as="geometry">
            <mxRectangle x="550" y="140" width="160" height="26" as="alternateBounds" />
          </mxGeometry>
        </mxCell>
        <mxCell id="685X49SJKfuo1PtqeQpH-81" value="-tour:Tour" style="text;html=1;align=left;verticalAlign=middle;resizable=0;points=[];autosize=1;strokeColor=none;fillColor=none;" vertex="1" parent="685X49SJKfuo1PtqeQpH-80">
          <mxGeometry y="30" width="160" height="26" as="geometry" />
        </mxCell>
        <mxCell id="685X49SJKfuo1PtqeQpH-82" value="-reservation_user:User" style="text;html=1;align=left;verticalAlign=middle;resizable=0;points=[];autosize=1;strokeColor=none;fillColor=none;" vertex="1" parent="685X49SJKfuo1PtqeQpH-80">
          <mxGeometry y="56" width="160" height="26" as="geometry" />
        </mxCell>
        <mxCell id="685X49SJKfuo1PtqeQpH-83" value="-seats:int" style="text;html=1;align=left;verticalAlign=middle;resizable=0;points=[];autosize=1;strokeColor=none;fillColor=none;" vertex="1" parent="685X49SJKfuo1PtqeQpH-80">
          <mxGeometry y="82" width="160" height="26" as="geometry" />
        </mxCell>
        <mxCell id="685X49SJKfuo1PtqeQpH-84" value="" style="line;strokeWidth=1;fillColor=none;align=left;verticalAlign=middle;spacingTop=-1;spacingLeft=3;spacingRight=3;rotatable=0;labelPosition=right;points=[];portConstraint=eastwest;strokeColor=inherit;" vertex="1" parent="685X49SJKfuo1PtqeQpH-80">
          <mxGeometry y="108" width="160" height="8" as="geometry" />
        </mxCell>
        <mxCell id="685X49SJKfuo1PtqeQpH-85" value="+storeInDatabase():void" style="text;html=1;align=left;verticalAlign=middle;resizable=0;points=[];autosize=1;strokeColor=none;fillColor=none;" vertex="1" parent="685X49SJKfuo1PtqeQpH-80">
          <mxGeometry y="116" width="160" height="26" as="geometry" />
        </mxCell>
        <mxCell id="685X49SJKfuo1PtqeQpH-86" value="Report" style="swimlane;fontStyle=1;align=center;verticalAlign=top;childLayout=stackLayout;horizontal=1;startSize=30;horizontalStack=0;resizeParent=1;resizeLast=0;collapsible=1;marginBottom=0;rounded=0;shadow=0;strokeWidth=1;fillColor=#dae8fc;strokeColor=#6c8ebf;" vertex="1" parent="1">
          <mxGeometry x="481.38" y="204" width="209" height="272" as="geometry">
            <mxRectangle x="550" y="140" width="160" height="26" as="alternateBounds" />
          </mxGeometry>
        </mxCell>
        <mxCell id="685X49SJKfuo1PtqeQpH-87" value="-report_user:User" style="text;html=1;align=left;verticalAlign=middle;resizable=0;points=[];autosize=1;strokeColor=none;fillColor=none;" vertex="1" parent="685X49SJKfuo1PtqeQpH-86">
          <mxGeometry y="30" width="209" height="26" as="geometry" />
        </mxCell>
        <mxCell id="685X49SJKfuo1PtqeQpH-88" value="-reported_historic_point:HistoricPoint" style="text;html=1;align=left;verticalAlign=middle;resizable=0;points=[];autosize=1;strokeColor=none;fillColor=none;" vertex="1" parent="685X49SJKfuo1PtqeQpH-86">
          <mxGeometry y="56" width="209" height="26" as="geometry" />
        </mxCell>
        <mxCell id="685X49SJKfuo1PtqeQpH-89" value="-report_reason:String" style="text;html=1;align=left;verticalAlign=middle;resizable=0;points=[];autosize=1;strokeColor=none;fillColor=none;" vertex="1" parent="685X49SJKfuo1PtqeQpH-86">
          <mxGeometry y="82" width="209" height="26" as="geometry" />
        </mxCell>
        <mxCell id="685X49SJKfuo1PtqeQpH-90" value="-report_text:String" style="text;html=1;align=left;verticalAlign=middle;resizable=0;points=[];autosize=1;strokeColor=none;fillColor=none;" vertex="1" parent="685X49SJKfuo1PtqeQpH-86">
          <mxGeometry y="108" width="209" height="26" as="geometry" />
        </mxCell>
        <mxCell id="685X49SJKfuo1PtqeQpH-91" value="" style="line;strokeWidth=1;fillColor=none;align=left;verticalAlign=middle;spacingTop=-1;spacingLeft=3;spacingRight=3;rotatable=0;labelPosition=right;points=[];portConstraint=eastwest;strokeColor=inherit;" vertex="1" parent="685X49SJKfuo1PtqeQpH-86">
          <mxGeometry y="134" width="209" height="8" as="geometry" />
        </mxCell>
        <mxCell id="685X49SJKfuo1PtqeQpH-92" value="+getUser():User" style="text;html=1;align=left;verticalAlign=middle;resizable=0;points=[];autosize=1;strokeColor=none;fillColor=none;" vertex="1" parent="685X49SJKfuo1PtqeQpH-86">
          <mxGeometry y="142" width="209" height="26" as="geometry" />
        </mxCell>
        <mxCell id="685X49SJKfuo1PtqeQpH-93" value="+getHistoricPoint():HistoricPoint" style="text;html=1;align=left;verticalAlign=middle;resizable=0;points=[];autosize=1;strokeColor=none;fillColor=none;" vertex="1" parent="685X49SJKfuo1PtqeQpH-86">
          <mxGeometry y="168" width="209" height="26" as="geometry" />
        </mxCell>
        <mxCell id="685X49SJKfuo1PtqeQpH-94" value="+getReason():String" style="text;html=1;align=left;verticalAlign=middle;resizable=0;points=[];autosize=1;strokeColor=none;fillColor=none;" vertex="1" parent="685X49SJKfuo1PtqeQpH-86">
          <mxGeometry y="194" width="209" height="26" as="geometry" />
        </mxCell>
        <mxCell id="685X49SJKfuo1PtqeQpH-95" value="+getText():String" style="text;html=1;align=left;verticalAlign=middle;resizable=0;points=[];autosize=1;strokeColor=none;fillColor=none;" vertex="1" parent="685X49SJKfuo1PtqeQpH-86">
          <mxGeometry y="220" width="209" height="26" as="geometry" />
        </mxCell>
        <mxCell id="685X49SJKfuo1PtqeQpH-96" value="+storeInDatabase():void" style="text;html=1;align=left;verticalAlign=middle;resizable=0;points=[];autosize=1;strokeColor=none;fillColor=none;" vertex="1" parent="685X49SJKfuo1PtqeQpH-86">
          <mxGeometry y="246" width="209" height="26" as="geometry" />
        </mxCell>
        <mxCell id="685X49SJKfuo1PtqeQpH-97" value="Rating" style="swimlane;fontStyle=1;align=center;verticalAlign=top;childLayout=stackLayout;horizontal=1;startSize=30;horizontalStack=0;resizeParent=1;resizeLast=0;collapsible=1;marginBottom=0;rounded=0;shadow=0;strokeWidth=1;fillColor=#dae8fc;strokeColor=#6c8ebf;" vertex="1" parent="1">
          <mxGeometry x="-343" y="1005" width="200" height="246" as="geometry">
            <mxRectangle x="550" y="140" width="160" height="26" as="alternateBounds" />
          </mxGeometry>
        </mxCell>
        <mxCell id="685X49SJKfuo1PtqeQpH-98" value="-rating_user:User" style="text;html=1;align=left;verticalAlign=middle;resizable=0;points=[];autosize=1;strokeColor=none;fillColor=none;" vertex="1" parent="685X49SJKfuo1PtqeQpH-97">
          <mxGeometry y="30" width="200" height="26" as="geometry" />
        </mxCell>
        <mxCell id="685X49SJKfuo1PtqeQpH-99" value="-rating_historic_point:HistoricPoint" style="text;html=1;align=left;verticalAlign=middle;resizable=0;points=[];autosize=1;strokeColor=none;fillColor=none;" vertex="1" parent="685X49SJKfuo1PtqeQpH-97">
          <mxGeometry y="56" width="200" height="26" as="geometry" />
        </mxCell>
        <mxCell id="685X49SJKfuo1PtqeQpH-100" value="-stars:int" style="text;html=1;align=left;verticalAlign=middle;resizable=0;points=[];autosize=1;strokeColor=none;fillColor=none;" vertex="1" parent="685X49SJKfuo1PtqeQpH-97">
          <mxGeometry y="82" width="200" height="26" as="geometry" />
        </mxCell>
        <mxCell id="685X49SJKfuo1PtqeQpH-101" value="-comment:String" style="text;html=1;align=left;verticalAlign=middle;resizable=0;points=[];autosize=1;strokeColor=none;fillColor=none;" vertex="1" parent="685X49SJKfuo1PtqeQpH-97">
          <mxGeometry y="108" width="200" height="26" as="geometry" />
        </mxCell>
        <mxCell id="685X49SJKfuo1PtqeQpH-102" value="" style="line;strokeWidth=1;fillColor=none;align=left;verticalAlign=middle;spacingTop=-1;spacingLeft=3;spacingRight=3;rotatable=0;labelPosition=right;points=[];portConstraint=eastwest;strokeColor=inherit;" vertex="1" parent="685X49SJKfuo1PtqeQpH-97">
          <mxGeometry y="134" width="200" height="8" as="geometry" />
        </mxCell>
        <mxCell id="685X49SJKfuo1PtqeQpH-103" value="+storeInDatabase():void" style="text;html=1;align=left;verticalAlign=middle;resizable=0;points=[];autosize=1;strokeColor=none;fillColor=none;" vertex="1" parent="685X49SJKfuo1PtqeQpH-97">
          <mxGeometry y="142" width="200" height="26" as="geometry" />
        </mxCell>
        <mxCell id="685X49SJKfuo1PtqeQpH-104" value="+modifyInDatabase(int, String):void" style="text;html=1;align=left;verticalAlign=middle;resizable=0;points=[];autosize=1;strokeColor=none;fillColor=none;" vertex="1" parent="685X49SJKfuo1PtqeQpH-97">
          <mxGeometry y="168" width="200" height="26" as="geometry" />
        </mxCell>
        <mxCell id="685X49SJKfuo1PtqeQpH-105" value="+setStars(int):void" style="text;html=1;align=left;verticalAlign=middle;resizable=0;points=[];autosize=1;strokeColor=none;fillColor=none;" vertex="1" parent="685X49SJKfuo1PtqeQpH-97">
          <mxGeometry y="194" width="200" height="26" as="geometry" />
        </mxCell>
        <mxCell id="685X49SJKfuo1PtqeQpH-106" value="+seComment(String):void" style="text;html=1;align=left;verticalAlign=middle;resizable=0;points=[];autosize=1;strokeColor=none;fillColor=none;" vertex="1" parent="685X49SJKfuo1PtqeQpH-97">
          <mxGeometry y="220" width="200" height="26" as="geometry" />
        </mxCell>
        <mxCell id="685X49SJKfuo1PtqeQpH-107" value="User" style="swimlane;fontStyle=1;align=center;verticalAlign=top;childLayout=stackLayout;horizontal=1;startSize=26;horizontalStack=0;resizeParent=1;resizeLast=0;collapsible=1;marginBottom=0;rounded=0;shadow=0;strokeWidth=1;fillColor=#dae8fc;strokeColor=#6c8ebf;" vertex="1" parent="1">
          <mxGeometry x="50.5" y="626" width="219" height="352" as="geometry">
            <mxRectangle x="80" y="300" width="160" height="26" as="alternateBounds" />
          </mxGeometry>
        </mxCell>
        <mxCell id="685X49SJKfuo1PtqeQpH-108" value="-full_name:String" style="text;html=1;align=left;verticalAlign=middle;resizable=0;points=[];autosize=1;strokeColor=none;fillColor=none;fontSize=12;" vertex="1" parent="685X49SJKfuo1PtqeQpH-107">
          <mxGeometry y="26" width="219" height="26" as="geometry" />
        </mxCell>
        <mxCell id="685X49SJKfuo1PtqeQpH-109" value="-username:String" style="text;html=1;align=left;verticalAlign=middle;resizable=0;points=[];autosize=1;strokeColor=none;fillColor=none;fontSize=12;" vertex="1" parent="685X49SJKfuo1PtqeQpH-107">
          <mxGeometry y="52" width="219" height="26" as="geometry" />
        </mxCell>
        <mxCell id="685X49SJKfuo1PtqeQpH-110" value="-password:String" style="text;html=1;align=left;verticalAlign=middle;resizable=0;points=[];autosize=1;strokeColor=none;fillColor=none;fontSize=12;" vertex="1" parent="685X49SJKfuo1PtqeQpH-107">
          <mxGeometry y="78" width="219" height="26" as="geometry" />
        </mxCell>
        <mxCell id="685X49SJKfuo1PtqeQpH-111" value="-email:String" style="text;html=1;align=left;verticalAlign=middle;resizable=0;points=[];autosize=1;strokeColor=none;fillColor=none;fontSize=12;" vertex="1" parent="685X49SJKfuo1PtqeQpH-107">
          <mxGeometry y="104" width="219" height="26" as="geometry" />
        </mxCell>
        <mxCell id="685X49SJKfuo1PtqeQpH-112" value="-phone_number:long" style="text;html=1;align=left;verticalAlign=middle;resizable=0;points=[];autosize=1;strokeColor=none;fillColor=none;fontSize=12;" vertex="1" parent="685X49SJKfuo1PtqeQpH-107">
          <mxGeometry y="130" width="219" height="26" as="geometry" />
        </mxCell>
        <mxCell id="685X49SJKfuo1PtqeQpH-113" value="-address:String" style="text;html=1;align=left;verticalAlign=middle;resizable=0;points=[];autosize=1;strokeColor=none;fillColor=none;fontSize=12;" vertex="1" parent="685X49SJKfuo1PtqeQpH-107">
          <mxGeometry y="156" width="219" height="26" as="geometry" />
        </mxCell>
        <mxCell id="685X49SJKfuo1PtqeQpH-114" value="-country:String" style="text;html=1;align=left;verticalAlign=middle;resizable=0;points=[];autosize=1;strokeColor=none;fillColor=none;fontSize=12;" vertex="1" parent="685X49SJKfuo1PtqeQpH-107">
          <mxGeometry y="182" width="219" height="26" as="geometry" />
        </mxCell>
        <mxCell id="685X49SJKfuo1PtqeQpH-115" value="-birth_date:String" style="text;html=1;align=left;verticalAlign=middle;resizable=0;points=[];autosize=1;strokeColor=none;fillColor=none;fontSize=12;" vertex="1" parent="685X49SJKfuo1PtqeQpH-107">
          <mxGeometry y="208" width="219" height="26" as="geometry" />
        </mxCell>
        <mxCell id="685X49SJKfuo1PtqeQpH-116" value="-interests:ArrayList&amp;lt;String&amp;gt;" style="text;html=1;align=left;verticalAlign=middle;resizable=0;points=[];autosize=1;strokeColor=none;fillColor=none;fontSize=12;" vertex="1" parent="685X49SJKfuo1PtqeQpH-107">
          <mxGeometry y="234" width="219" height="26" as="geometry" />
        </mxCell>
        <mxCell id="685X49SJKfuo1PtqeQpH-117" value="" style="line;strokeWidth=1;fillColor=none;align=left;verticalAlign=middle;spacingTop=-1;spacingLeft=3;spacingRight=3;rotatable=0;labelPosition=right;points=[];portConstraint=eastwest;strokeColor=inherit;" vertex="1" parent="685X49SJKfuo1PtqeQpH-107">
          <mxGeometry y="260" width="219" height="8" as="geometry" />
        </mxCell>
        <mxCell id="685X49SJKfuo1PtqeQpH-118" value="+getUsername():String" style="text;html=1;align=left;verticalAlign=middle;resizable=0;points=[];autosize=1;strokeColor=none;fillColor=none;fontSize=12;" vertex="1" parent="685X49SJKfuo1PtqeQpH-107">
          <mxGeometry y="268" width="219" height="26" as="geometry" />
        </mxCell>
        <mxCell id="685X49SJKfuo1PtqeQpH-119" value="+getEmail():String" style="text;html=1;align=left;verticalAlign=middle;resizable=0;points=[];autosize=1;strokeColor=none;fillColor=none;fontSize=12;" vertex="1" parent="685X49SJKfuo1PtqeQpH-107">
          <mxGeometry y="294" width="219" height="26" as="geometry" />
        </mxCell>
        <mxCell id="685X49SJKfuo1PtqeQpH-120" value="+getPhoneNumber():long" style="text;html=1;align=left;verticalAlign=middle;resizable=0;points=[];autosize=1;strokeColor=none;fillColor=none;fontSize=12;" vertex="1" parent="685X49SJKfuo1PtqeQpH-107">
          <mxGeometry y="320" width="219" height="26" as="geometry" />
        </mxCell>
        <mxCell id="685X49SJKfuo1PtqeQpH-121" value="Contribution" style="swimlane;fontStyle=1;align=center;verticalAlign=top;childLayout=stackLayout;horizontal=1;startSize=30;horizontalStack=0;resizeParent=1;resizeLast=0;collapsible=1;marginBottom=0;rounded=0;shadow=0;strokeWidth=1;fillColor=#dae8fc;strokeColor=#6c8ebf;" vertex="1" parent="1">
          <mxGeometry x="33" y="-455" width="251" height="622" as="geometry">
            <mxRectangle x="550" y="140" width="160" height="26" as="alternateBounds" />
          </mxGeometry>
        </mxCell>
        <mxCell id="685X49SJKfuo1PtqeQpH-122" value="-title:String" style="text;html=1;align=left;verticalAlign=middle;resizable=0;points=[];autosize=1;strokeColor=none;fillColor=none;" vertex="1" parent="685X49SJKfuo1PtqeQpH-121">
          <mxGeometry y="30" width="251" height="26" as="geometry" />
        </mxCell>
        <mxCell id="685X49SJKfuo1PtqeQpH-123" value="-introductory_text:String" style="text;html=1;align=left;verticalAlign=middle;resizable=0;points=[];autosize=1;strokeColor=none;fillColor=none;" vertex="1" parent="685X49SJKfuo1PtqeQpH-121">
          <mxGeometry y="56" width="251" height="26" as="geometry" />
        </mxCell>
        <mxCell id="685X49SJKfuo1PtqeQpH-124" value="-area:String" style="text;html=1;align=left;verticalAlign=middle;resizable=0;points=[];autosize=1;strokeColor=none;fillColor=none;" vertex="1" parent="685X49SJKfuo1PtqeQpH-121">
          <mxGeometry y="82" width="251" height="26" as="geometry" />
        </mxCell>
        <mxCell id="685X49SJKfuo1PtqeQpH-125" value="-location:Location" style="text;html=1;align=left;verticalAlign=middle;resizable=0;points=[];autosize=1;strokeColor=none;fillColor=none;" vertex="1" parent="685X49SJKfuo1PtqeQpH-121">
          <mxGeometry y="108" width="251" height="26" as="geometry" />
        </mxCell>
        <mxCell id="685X49SJKfuo1PtqeQpH-126" value="-type:String" style="text;html=1;align=left;verticalAlign=middle;resizable=0;points=[];autosize=1;strokeColor=none;fillColor=none;" vertex="1" parent="685X49SJKfuo1PtqeQpH-121">
          <mxGeometry y="134" width="251" height="26" as="geometry" />
        </mxCell>
        <mxCell id="685X49SJKfuo1PtqeQpH-127" value="-photos:ArrayList&amp;lt;File&amp;gt;" style="text;html=1;align=left;verticalAlign=middle;resizable=0;points=[];autosize=1;strokeColor=none;fillColor=none;" vertex="1" parent="685X49SJKfuo1PtqeQpH-121">
          <mxGeometry y="160" width="251" height="26" as="geometry" />
        </mxCell>
        <mxCell id="685X49SJKfuo1PtqeQpH-128" value="-sound_clips:ArrayList&amp;lt;File&amp;gt;" style="text;html=1;align=left;verticalAlign=middle;resizable=0;points=[];autosize=1;strokeColor=none;fillColor=none;" vertex="1" parent="685X49SJKfuo1PtqeQpH-121">
          <mxGeometry y="186" width="251" height="26" as="geometry" />
        </mxCell>
        <mxCell id="685X49SJKfuo1PtqeQpH-129" value="-walk_nodes:ArrayList&amp;lt;HistoricPoint&amp;gt;" style="text;html=1;align=left;verticalAlign=middle;resizable=0;points=[];autosize=1;strokeColor=none;fillColor=none;" vertex="1" parent="685X49SJKfuo1PtqeQpH-121">
          <mxGeometry y="212" width="251" height="26" as="geometry" />
        </mxCell>
        <mxCell id="685X49SJKfuo1PtqeQpH-130" value="-contributor:User" style="text;html=1;align=left;verticalAlign=middle;resizable=0;points=[];autosize=1;strokeColor=none;fillColor=none;" vertex="1" parent="685X49SJKfuo1PtqeQpH-121">
          <mxGeometry y="238" width="251" height="26" as="geometry" />
        </mxCell>
        <mxCell id="685X49SJKfuo1PtqeQpH-131" value="" style="line;strokeWidth=1;fillColor=none;align=left;verticalAlign=middle;spacingTop=-1;spacingLeft=3;spacingRight=3;rotatable=0;labelPosition=right;points=[];portConstraint=eastwest;strokeColor=inherit;" vertex="1" parent="685X49SJKfuo1PtqeQpH-121">
          <mxGeometry y="264" width="251" height="8" as="geometry" />
        </mxCell>
        <mxCell id="685X49SJKfuo1PtqeQpH-132" value="+getTitle():String" style="text;html=1;align=left;verticalAlign=middle;resizable=0;points=[];autosize=1;strokeColor=none;fillColor=none;" vertex="1" parent="685X49SJKfuo1PtqeQpH-121">
          <mxGeometry y="272" width="251" height="26" as="geometry" />
        </mxCell>
        <mxCell id="685X49SJKfuo1PtqeQpH-133" value="+getText():String" style="text;html=1;align=left;verticalAlign=middle;resizable=0;points=[];autosize=1;strokeColor=none;fillColor=none;" vertex="1" parent="685X49SJKfuo1PtqeQpH-121">
          <mxGeometry y="298" width="251" height="26" as="geometry" />
        </mxCell>
        <mxCell id="685X49SJKfuo1PtqeQpH-134" value="+getMultimedia():ArrayList&amp;lt;File&amp;gt;" style="text;html=1;align=left;verticalAlign=middle;resizable=0;points=[];autosize=1;strokeColor=none;fillColor=none;" vertex="1" parent="685X49SJKfuo1PtqeQpH-121">
          <mxGeometry y="324" width="251" height="26" as="geometry" />
        </mxCell>
        <mxCell id="685X49SJKfuo1PtqeQpH-135" value="+getType():String" style="text;html=1;align=left;verticalAlign=middle;resizable=0;points=[];autosize=1;strokeColor=none;fillColor=none;" vertex="1" parent="685X49SJKfuo1PtqeQpH-121">
          <mxGeometry y="350" width="251" height="26" as="geometry" />
        </mxCell>
        <mxCell id="685X49SJKfuo1PtqeQpH-136" value="+convertToHistoricPoint(Admin):HistoricPoint" style="text;html=1;align=left;verticalAlign=middle;resizable=0;points=[];autosize=1;strokeColor=none;fillColor=none;" vertex="1" parent="685X49SJKfuo1PtqeQpH-121">
          <mxGeometry y="376" width="251" height="26" as="geometry" />
        </mxCell>
        <mxCell id="685X49SJKfuo1PtqeQpH-137" value="+convertToHistoricWalk(Admin):HistoricWalk" style="text;html=1;align=left;verticalAlign=middle;resizable=0;points=[];autosize=1;strokeColor=none;fillColor=none;" vertex="1" parent="685X49SJKfuo1PtqeQpH-121">
          <mxGeometry y="402" width="251" height="26" as="geometry" />
        </mxCell>
        <mxCell id="685X49SJKfuo1PtqeQpH-138" value="+getContributor():User" style="text;html=1;align=left;verticalAlign=middle;resizable=0;points=[];autosize=1;strokeColor=none;fillColor=none;" vertex="1" parent="685X49SJKfuo1PtqeQpH-121">
          <mxGeometry y="428" width="251" height="26" as="geometry" />
        </mxCell>
        <mxCell id="685X49SJKfuo1PtqeQpH-139" value="+addSoundClip(File):void" style="text;html=1;align=left;verticalAlign=middle;whiteSpace=wrap;rounded=0;" vertex="1" parent="685X49SJKfuo1PtqeQpH-121">
          <mxGeometry y="454" width="251" height="30" as="geometry" />
        </mxCell>
        <mxCell id="685X49SJKfuo1PtqeQpH-140" value="+addPoint(HistoricPoint):void" style="text;html=1;align=left;verticalAlign=middle;whiteSpace=wrap;rounded=0;" vertex="1" parent="685X49SJKfuo1PtqeQpH-121">
          <mxGeometry y="484" width="251" height="30" as="geometry" />
        </mxCell>
        <mxCell id="685X49SJKfuo1PtqeQpH-141" value="+deletePoint(HistoricPoint):void" style="text;html=1;align=left;verticalAlign=middle;whiteSpace=wrap;rounded=0;" vertex="1" parent="685X49SJKfuo1PtqeQpH-121">
          <mxGeometry y="514" width="251" height="30" as="geometry" />
        </mxCell>
        <mxCell id="685X49SJKfuo1PtqeQpH-142" value="+setTitle(String):void" style="text;html=1;align=left;verticalAlign=middle;resizable=0;points=[];autosize=1;strokeColor=none;fillColor=none;" vertex="1" parent="685X49SJKfuo1PtqeQpH-121">
          <mxGeometry y="544" width="251" height="26" as="geometry" />
        </mxCell>
        <mxCell id="685X49SJKfuo1PtqeQpH-143" value="+setText(String):void" style="text;html=1;align=left;verticalAlign=middle;resizable=0;points=[];autosize=1;strokeColor=none;fillColor=none;" vertex="1" parent="685X49SJKfuo1PtqeQpH-121">
          <mxGeometry y="570" width="251" height="26" as="geometry" />
        </mxCell>
        <mxCell id="685X49SJKfuo1PtqeQpH-144" value="+storeInDatabase():void" style="text;html=1;align=left;verticalAlign=middle;resizable=0;points=[];autosize=1;strokeColor=none;fillColor=none;" vertex="1" parent="685X49SJKfuo1PtqeQpH-121">
          <mxGeometry y="596" width="251" height="26" as="geometry" />
        </mxCell>
        <mxCell id="685X49SJKfuo1PtqeQpH-145" style="edgeStyle=none;curved=1;rounded=0;orthogonalLoop=1;jettySize=auto;html=1;exitX=0.5;exitY=0;exitDx=0;exitDy=0;fontSize=12;startSize=8;endSize=8;endArrow=none;endFill=0;entryX=0.5;entryY=1;entryDx=0;entryDy=0;" edge="1" parent="1" source="685X49SJKfuo1PtqeQpH-149" target="685X49SJKfuo1PtqeQpH-107">
          <mxGeometry relative="1" as="geometry">
            <mxPoint x="161" y="689" as="targetPoint" />
          </mxGeometry>
        </mxCell>
        <mxCell id="685X49SJKfuo1PtqeQpH-146" value="creates" style="edgeLabel;html=1;align=center;verticalAlign=middle;resizable=0;points=[];" vertex="1" connectable="0" parent="685X49SJKfuo1PtqeQpH-145">
          <mxGeometry x="0.0767" y="-1" relative="1" as="geometry">
            <mxPoint x="21" y="4" as="offset" />
          </mxGeometry>
        </mxCell>
        <mxCell id="685X49SJKfuo1PtqeQpH-147" value="1" style="edgeLabel;html=1;align=center;verticalAlign=middle;resizable=0;points=[];" vertex="1" connectable="0" parent="685X49SJKfuo1PtqeQpH-145">
          <mxGeometry x="0.7909" y="-2" relative="1" as="geometry">
            <mxPoint x="5" as="offset" />
          </mxGeometry>
        </mxCell>
        <mxCell id="685X49SJKfuo1PtqeQpH-148" value="0..*" style="edgeLabel;html=1;align=center;verticalAlign=middle;resizable=0;points=[];" vertex="1" connectable="0" parent="685X49SJKfuo1PtqeQpH-145">
          <mxGeometry x="-0.7247" y="-1" relative="1" as="geometry">
            <mxPoint x="11" y="-1" as="offset" />
          </mxGeometry>
        </mxCell>
        <mxCell id="685X49SJKfuo1PtqeQpH-149" value="Notification" style="swimlane;fontStyle=1;align=center;verticalAlign=top;childLayout=stackLayout;horizontal=1;startSize=30;horizontalStack=0;resizeParent=1;resizeLast=0;collapsible=1;marginBottom=0;rounded=0;shadow=0;strokeWidth=1;fillColor=#dae8fc;strokeColor=#6c8ebf;" vertex="1" parent="1">
          <mxGeometry x="67.5" y="1265" width="185" height="168" as="geometry">
            <mxRectangle x="550" y="140" width="160" height="26" as="alternateBounds" />
          </mxGeometry>
        </mxCell>
        <mxCell id="685X49SJKfuo1PtqeQpH-150" value="-notification_user:User" style="text;html=1;align=left;verticalAlign=middle;resizable=0;points=[];autosize=1;strokeColor=none;fillColor=none;" vertex="1" parent="685X49SJKfuo1PtqeQpH-149">
          <mxGeometry y="30" width="185" height="26" as="geometry" />
        </mxCell>
        <mxCell id="685X49SJKfuo1PtqeQpH-151" value="-title:String" style="text;html=1;align=left;verticalAlign=middle;resizable=0;points=[];autosize=1;strokeColor=none;fillColor=none;" vertex="1" parent="685X49SJKfuo1PtqeQpH-149">
          <mxGeometry y="56" width="185" height="26" as="geometry" />
        </mxCell>
        <mxCell id="685X49SJKfuo1PtqeQpH-152" value="-text:String" style="text;html=1;align=left;verticalAlign=middle;resizable=0;points=[];autosize=1;strokeColor=none;fillColor=none;" vertex="1" parent="685X49SJKfuo1PtqeQpH-149">
          <mxGeometry y="82" width="185" height="26" as="geometry" />
        </mxCell>
        <mxCell id="685X49SJKfuo1PtqeQpH-153" value="-date:String" style="text;html=1;align=left;verticalAlign=middle;resizable=0;points=[];autosize=1;strokeColor=none;fillColor=none;fontSize=12;" vertex="1" parent="685X49SJKfuo1PtqeQpH-149">
          <mxGeometry y="108" width="185" height="26" as="geometry" />
        </mxCell>
        <mxCell id="685X49SJKfuo1PtqeQpH-154" value="" style="line;strokeWidth=1;fillColor=none;align=left;verticalAlign=middle;spacingTop=-1;spacingLeft=3;spacingRight=3;rotatable=0;labelPosition=right;points=[];portConstraint=eastwest;strokeColor=inherit;" vertex="1" parent="685X49SJKfuo1PtqeQpH-149">
          <mxGeometry y="134" width="185" height="8" as="geometry" />
        </mxCell>
        <mxCell id="685X49SJKfuo1PtqeQpH-155" value="+storeInDatabase():void" style="text;html=1;align=left;verticalAlign=middle;resizable=0;points=[];autosize=1;strokeColor=none;fillColor=none;" vertex="1" parent="685X49SJKfuo1PtqeQpH-149">
          <mxGeometry y="142" width="185" height="26" as="geometry" />
        </mxCell>
        <mxCell id="685X49SJKfuo1PtqeQpH-156" value="DatabaseManager" style="swimlane;fontStyle=1;align=center;verticalAlign=top;childLayout=stackLayout;horizontal=1;startSize=26;horizontalStack=0;resizeParent=1;resizeLast=0;collapsible=1;marginBottom=0;rounded=0;shadow=0;strokeWidth=1;fillColor=#dae8fc;strokeColor=#6c8ebf;" vertex="1" parent="1">
          <mxGeometry x="-1243" y="27" width="364" height="662" as="geometry">
            <mxRectangle x="340" y="380" width="170" height="26" as="alternateBounds" />
          </mxGeometry>
        </mxCell>
        <mxCell id="685X49SJKfuo1PtqeQpH-157" value="-mongoClient:MongoClient" style="text;html=1;align=left;verticalAlign=middle;resizable=0;points=[];autosize=1;strokeColor=none;fillColor=none;" vertex="1" parent="685X49SJKfuo1PtqeQpH-156">
          <mxGeometry y="26" width="364" height="26" as="geometry" />
        </mxCell>
        <mxCell id="685X49SJKfuo1PtqeQpH-158" value="-database:MongoDatabase" style="text;html=1;align=left;verticalAlign=middle;resizable=0;points=[];autosize=1;strokeColor=none;fillColor=none;" vertex="1" parent="685X49SJKfuo1PtqeQpH-156">
          <mxGeometry y="52" width="364" height="26" as="geometry" />
        </mxCell>
        <mxCell id="685X49SJKfuo1PtqeQpH-159" value="" style="line;strokeWidth=1;fillColor=none;align=left;verticalAlign=middle;spacingTop=-1;spacingLeft=3;spacingRight=3;rotatable=0;labelPosition=right;points=[];portConstraint=eastwest;strokeColor=inherit;" vertex="1" parent="685X49SJKfuo1PtqeQpH-156">
          <mxGeometry y="78" width="364" height="8" as="geometry" />
        </mxCell>
        <mxCell id="685X49SJKfuo1PtqeQpH-160" value="+fetchHistoricPoints():FindIterable&amp;lt;Document&amp;gt;" style="text;html=1;align=left;verticalAlign=middle;resizable=0;points=[];autosize=1;strokeColor=none;fillColor=none;" vertex="1" parent="685X49SJKfuo1PtqeQpH-156">
          <mxGeometry y="86" width="364" height="26" as="geometry" />
        </mxCell>
        <mxCell id="685X49SJKfuo1PtqeQpH-161" value="+storeHistoricPoint(HistoricPoint):void" style="text;html=1;align=left;verticalAlign=middle;resizable=0;points=[];autosize=1;strokeColor=none;fillColor=none;" vertex="1" parent="685X49SJKfuo1PtqeQpH-156">
          <mxGeometry y="112" width="364" height="26" as="geometry" />
        </mxCell>
        <mxCell id="685X49SJKfuo1PtqeQpH-162" value="+fetchVisitingsHistory(User):FindIterable&amp;lt;Document&amp;gt;" style="text;html=1;align=left;verticalAlign=middle;resizable=0;points=[];autosize=1;strokeColor=none;fillColor=none;" vertex="1" parent="685X49SJKfuo1PtqeQpH-156">
          <mxGeometry y="138" width="364" height="26" as="geometry" />
        </mxCell>
        <mxCell id="685X49SJKfuo1PtqeQpH-163" value="+fetchRating(User, HistoricPoint):FindIterable&amp;lt;Document&amp;gt;" style="text;html=1;align=left;verticalAlign=middle;resizable=0;points=[];autosize=1;strokeColor=none;fillColor=none;" vertex="1" parent="685X49SJKfuo1PtqeQpH-156">
          <mxGeometry y="164" width="364" height="26" as="geometry" />
        </mxCell>
        <mxCell id="685X49SJKfuo1PtqeQpH-164" value="+storeRating(Rating):void" style="text;html=1;align=left;verticalAlign=middle;resizable=0;points=[];autosize=1;strokeColor=none;fillColor=none;" vertex="1" parent="685X49SJKfuo1PtqeQpH-156">
          <mxGeometry y="190" width="364" height="26" as="geometry" />
        </mxCell>
        <mxCell id="685X49SJKfuo1PtqeQpH-165" value="+modifyRating(Rating, int, String):void" style="text;html=1;align=left;verticalAlign=middle;resizable=0;points=[];autosize=1;strokeColor=none;fillColor=none;" vertex="1" parent="685X49SJKfuo1PtqeQpH-156">
          <mxGeometry y="216" width="364" height="26" as="geometry" />
        </mxCell>
        <mxCell id="685X49SJKfuo1PtqeQpH-166" value="+modifyVisitingsHistory(VisitingsHistory):void" style="text;html=1;align=left;verticalAlign=middle;resizable=0;points=[];autosize=1;strokeColor=none;fillColor=none;" vertex="1" parent="685X49SJKfuo1PtqeQpH-156">
          <mxGeometry y="242" width="364" height="26" as="geometry" />
        </mxCell>
        <mxCell id="685X49SJKfuo1PtqeQpH-167" value="+fetchCitiesWithContributions():ArrayList&amp;lt;String&amp;gt;" style="text;html=1;align=left;verticalAlign=middle;resizable=0;points=[];autosize=1;strokeColor=none;fillColor=none;" vertex="1" parent="685X49SJKfuo1PtqeQpH-156">
          <mxGeometry y="268" width="364" height="26" as="geometry" />
        </mxCell>
        <mxCell id="685X49SJKfuo1PtqeQpH-168" value="+fetchContributions():FindIterable&amp;lt;Document&amp;gt;" style="text;html=1;align=left;verticalAlign=middle;resizable=0;points=[];autosize=1;strokeColor=none;fillColor=none;" vertex="1" parent="685X49SJKfuo1PtqeQpH-156">
          <mxGeometry y="294" width="364" height="26" as="geometry" />
        </mxCell>
        <mxCell id="685X49SJKfuo1PtqeQpH-169" value="+storeHistoricPoint(HistoricPoint):void" style="text;html=1;align=left;verticalAlign=middle;resizable=0;points=[];autosize=1;strokeColor=none;fillColor=none;" vertex="1" parent="685X49SJKfuo1PtqeQpH-156">
          <mxGeometry y="320" width="364" height="26" as="geometry" />
        </mxCell>
        <mxCell id="685X49SJKfuo1PtqeQpH-170" value="+storeHistoricWalk(HistoricWalk):void" style="text;html=1;align=left;verticalAlign=middle;resizable=0;points=[];autosize=1;strokeColor=none;fillColor=none;" vertex="1" parent="685X49SJKfuo1PtqeQpH-156">
          <mxGeometry y="346" width="364" height="26" as="geometry" />
        </mxCell>
        <mxCell id="685X49SJKfuo1PtqeQpH-171" value="+storeNotification(Notification):void" style="text;html=1;align=left;verticalAlign=middle;resizable=0;points=[];autosize=1;strokeColor=none;fillColor=none;" vertex="1" parent="685X49SJKfuo1PtqeQpH-156">
          <mxGeometry y="372" width="364" height="26" as="geometry" />
        </mxCell>
        <mxCell id="685X49SJKfuo1PtqeQpH-172" value="+fetchTours():FindIterable&amp;lt;Document&amp;gt;" style="text;html=1;align=left;verticalAlign=middle;resizable=0;points=[];autosize=1;strokeColor=none;fillColor=none;" vertex="1" parent="685X49SJKfuo1PtqeQpH-156">
          <mxGeometry y="398" width="364" height="26" as="geometry" />
        </mxCell>
        <mxCell id="685X49SJKfuo1PtqeQpH-173" value="+storeReservation(Reservation):void" style="text;html=1;align=left;verticalAlign=middle;resizable=0;points=[];autosize=1;strokeColor=none;fillColor=none;" vertex="1" parent="685X49SJKfuo1PtqeQpH-156">
          <mxGeometry y="424" width="364" height="26" as="geometry" />
        </mxCell>
        <mxCell id="685X49SJKfuo1PtqeQpH-174" value="+updateTourAvailableSeats(Tour, int):void" style="text;html=1;align=left;verticalAlign=middle;resizable=0;points=[];autosize=1;strokeColor=none;fillColor=none;" vertex="1" parent="685X49SJKfuo1PtqeQpH-156">
          <mxGeometry y="450" width="364" height="26" as="geometry" />
        </mxCell>
        <mxCell id="685X49SJKfuo1PtqeQpH-175" value="+fetchHistoricPointsWithReports():FindIterable&amp;lt;Document&amp;gt;" style="text;html=1;align=left;verticalAlign=middle;resizable=0;points=[];autosize=1;strokeColor=none;fillColor=none;" vertex="1" parent="685X49SJKfuo1PtqeQpH-156">
          <mxGeometry y="476" width="364" height="26" as="geometry" />
        </mxCell>
        <mxCell id="685X49SJKfuo1PtqeQpH-176" value="+fetchHistoricPointReports(HistoricPoint):FindIterable&amp;lt;Document&amp;gt;" style="text;html=1;align=left;verticalAlign=middle;resizable=0;points=[];autosize=1;strokeColor=none;fillColor=none;" vertex="1" parent="685X49SJKfuo1PtqeQpH-156">
          <mxGeometry y="502" width="364" height="26" as="geometry" />
        </mxCell>
        <mxCell id="685X49SJKfuo1PtqeQpH-177" value="+deleteHistoricPointReports(HistoricPoint):void" style="text;html=1;align=left;verticalAlign=middle;resizable=0;points=[];autosize=1;strokeColor=none;fillColor=none;" vertex="1" parent="685X49SJKfuo1PtqeQpH-156">
          <mxGeometry y="528" width="364" height="26" as="geometry" />
        </mxCell>
        <mxCell id="685X49SJKfuo1PtqeQpH-178" value="+deleteHistoricPoint(HistoricPoint):void" style="text;html=1;align=left;verticalAlign=middle;resizable=0;points=[];autosize=1;strokeColor=none;fillColor=none;" vertex="1" parent="685X49SJKfuo1PtqeQpH-156">
          <mxGeometry y="554" width="364" height="26" as="geometry" />
        </mxCell>
        <mxCell id="685X49SJKfuo1PtqeQpH-179" value="+storeContribution(Contribution):void" style="text;html=1;align=left;verticalAlign=middle;whiteSpace=wrap;rounded=0;" vertex="1" parent="685X49SJKfuo1PtqeQpH-156">
          <mxGeometry y="580" width="364" height="30" as="geometry" />
        </mxCell>
        <mxCell id="685X49SJKfuo1PtqeQpH-180" value="+fetchHistoricPointsInArea(Location):FindIterable&amp;lt;Document&amp;gt;" style="text;html=1;align=left;verticalAlign=middle;resizable=0;points=[];autosize=1;strokeColor=none;fillColor=none;" vertex="1" parent="685X49SJKfuo1PtqeQpH-156">
          <mxGeometry y="610" width="364" height="26" as="geometry" />
        </mxCell>
        <mxCell id="685X49SJKfuo1PtqeQpH-181" value="+storeReport(Report):void" style="text;html=1;align=left;verticalAlign=middle;resizable=0;points=[];autosize=1;strokeColor=none;fillColor=none;" vertex="1" parent="685X49SJKfuo1PtqeQpH-156">
          <mxGeometry y="636" width="364" height="26" as="geometry" />
        </mxCell>
        <mxCell id="685X49SJKfuo1PtqeQpH-182" value="UserLocationManager" style="swimlane;fontStyle=1;align=center;verticalAlign=top;childLayout=stackLayout;horizontal=1;startSize=26;horizontalStack=0;resizeParent=1;resizeLast=0;collapsible=1;marginBottom=0;rounded=0;shadow=0;strokeWidth=1;fillColor=#dae8fc;strokeColor=#6c8ebf;" vertex="1" parent="1">
          <mxGeometry x="-1544" y="108" width="188" height="52" as="geometry">
            <mxRectangle x="340" y="380" width="170" height="26" as="alternateBounds" />
          </mxGeometry>
        </mxCell>
        <mxCell id="685X49SJKfuo1PtqeQpH-183" value="+requestUserLocation():Location" style="text;html=1;align=left;verticalAlign=middle;resizable=0;points=[];autosize=1;strokeColor=none;fillColor=none;" vertex="1" parent="685X49SJKfuo1PtqeQpH-182">
          <mxGeometry y="26" width="188" height="26" as="geometry" />
        </mxCell>
        <mxCell id="685X49SJKfuo1PtqeQpH-184" style="rounded=1;orthogonalLoop=1;jettySize=auto;html=1;exitX=0;exitY=0.25;exitDx=0;exitDy=0;strokeColor=default;align=center;verticalAlign=middle;fontFamily=Helvetica;fontSize=11;fontColor=default;labelBackgroundColor=default;elbow=vertical;endArrow=baseDash;endFill=0;endSize=0;" edge="1" parent="1" source="685X49SJKfuo1PtqeQpH-26" target="685X49SJKfuo1PtqeQpH-33">
          <mxGeometry relative="1" as="geometry">
            <mxPoint x="-80" y="180" as="targetPoint" />
            <mxPoint x="170" y="358" as="sourcePoint" />
          </mxGeometry>
        </mxCell>
        <mxCell id="685X49SJKfuo1PtqeQpH-185" value="creates" style="edgeLabel;html=1;align=center;verticalAlign=middle;resizable=0;points=[];" vertex="1" connectable="0" parent="685X49SJKfuo1PtqeQpH-184">
          <mxGeometry x="-0.7653" relative="1" as="geometry">
            <mxPoint x="-34" y="-35" as="offset" />
          </mxGeometry>
        </mxCell>
        <mxCell id="685X49SJKfuo1PtqeQpH-186" value="1" style="edgeLabel;html=1;align=center;verticalAlign=middle;resizable=0;points=[];" vertex="1" connectable="0" parent="685X49SJKfuo1PtqeQpH-184">
          <mxGeometry x="-0.8306" relative="1" as="geometry">
            <mxPoint x="22" y="-3" as="offset" />
          </mxGeometry>
        </mxCell>
        <mxCell id="685X49SJKfuo1PtqeQpH-187" value="0..*" style="edgeLabel;html=1;align=center;verticalAlign=middle;resizable=0;points=[];" vertex="1" connectable="0" parent="685X49SJKfuo1PtqeQpH-184">
          <mxGeometry x="0.8578" relative="1" as="geometry">
            <mxPoint x="-12" y="-15" as="offset" />
          </mxGeometry>
        </mxCell>
        <mxCell id="685X49SJKfuo1PtqeQpH-188" style="rounded=1;orthogonalLoop=1;jettySize=auto;html=1;exitX=0;exitY=0.75;exitDx=0;exitDy=0;strokeColor=default;align=center;verticalAlign=middle;fontFamily=Helvetica;fontSize=11;fontColor=default;labelBackgroundColor=default;elbow=vertical;endArrow=baseDash;endFill=0;endSize=0;" edge="1" parent="1" source="685X49SJKfuo1PtqeQpH-26" target="685X49SJKfuo1PtqeQpH-196">
          <mxGeometry relative="1" as="geometry">
            <mxPoint x="-490" y="146" as="targetPoint" />
            <mxPoint x="90" y="378" as="sourcePoint" />
          </mxGeometry>
        </mxCell>
        <mxCell id="685X49SJKfuo1PtqeQpH-189" value="creates" style="edgeLabel;html=1;align=center;verticalAlign=middle;resizable=0;points=[];" vertex="1" connectable="0" parent="685X49SJKfuo1PtqeQpH-188">
          <mxGeometry x="-0.7653" relative="1" as="geometry">
            <mxPoint x="-35" y="-8" as="offset" />
          </mxGeometry>
        </mxCell>
        <mxCell id="685X49SJKfuo1PtqeQpH-190" value="1" style="edgeLabel;html=1;align=center;verticalAlign=middle;resizable=0;points=[];" vertex="1" connectable="0" parent="685X49SJKfuo1PtqeQpH-188">
          <mxGeometry x="-0.8306" relative="1" as="geometry">
            <mxPoint x="21" y="-17" as="offset" />
          </mxGeometry>
        </mxCell>
        <mxCell id="685X49SJKfuo1PtqeQpH-191" value="0..*" style="edgeLabel;html=1;align=center;verticalAlign=middle;resizable=0;points=[];" vertex="1" connectable="0" parent="685X49SJKfuo1PtqeQpH-188">
          <mxGeometry x="0.8578" relative="1" as="geometry">
            <mxPoint x="-12" y="-15" as="offset" />
          </mxGeometry>
        </mxCell>
        <mxCell id="685X49SJKfuo1PtqeQpH-192" style="rounded=1;orthogonalLoop=1;jettySize=auto;html=1;strokeColor=default;align=center;verticalAlign=middle;fontFamily=Helvetica;fontSize=11;fontColor=default;labelBackgroundColor=default;elbow=vertical;endArrow=baseDash;endFill=0;endSize=0;" edge="1" parent="1" source="685X49SJKfuo1PtqeQpH-107" target="685X49SJKfuo1PtqeQpH-80">
          <mxGeometry relative="1" as="geometry">
            <mxPoint x="279" y="696" as="sourcePoint" />
            <mxPoint x="449" y="1036" as="targetPoint" />
          </mxGeometry>
        </mxCell>
        <mxCell id="685X49SJKfuo1PtqeQpH-193" value="1" style="edgeLabel;html=1;align=center;verticalAlign=middle;resizable=0;points=[];" vertex="1" connectable="0" parent="685X49SJKfuo1PtqeQpH-192">
          <mxGeometry x="-0.8503" y="-1" relative="1" as="geometry">
            <mxPoint x="-4" y="-14" as="offset" />
          </mxGeometry>
        </mxCell>
        <mxCell id="685X49SJKfuo1PtqeQpH-194" value="0..*" style="edgeLabel;html=1;align=center;verticalAlign=middle;resizable=0;points=[];" vertex="1" connectable="0" parent="685X49SJKfuo1PtqeQpH-192">
          <mxGeometry x="0.8466" y="-1" relative="1" as="geometry">
            <mxPoint x="7" y="-9" as="offset" />
          </mxGeometry>
        </mxCell>
        <mxCell id="685X49SJKfuo1PtqeQpH-195" value="makes" style="edgeLabel;html=1;align=center;verticalAlign=middle;resizable=0;points=[];" vertex="1" connectable="0" parent="685X49SJKfuo1PtqeQpH-192">
          <mxGeometry x="-0.2712" y="-1" relative="1" as="geometry">
            <mxPoint y="-22" as="offset" />
          </mxGeometry>
        </mxCell>
        <mxCell id="685X49SJKfuo1PtqeQpH-196" value="HistoricPoint" style="swimlane;fontStyle=1;align=center;verticalAlign=top;childLayout=stackLayout;horizontal=1;startSize=26;horizontalStack=0;resizeParent=1;resizeParentMax=0;resizeLast=0;collapsible=1;marginBottom=0;whiteSpace=wrap;html=1;fillColor=#dae8fc;strokeColor=#6c8ebf;" vertex="1" parent="1">
          <mxGeometry x="-825" y="326" width="210" height="481" as="geometry" />
        </mxCell>
        <mxCell id="685X49SJKfuo1PtqeQpH-197" value="-title:String" style="text;html=1;align=left;verticalAlign=middle;resizable=0;points=[];autosize=1;strokeColor=none;fillColor=none;" vertex="1" parent="685X49SJKfuo1PtqeQpH-196">
          <mxGeometry y="26" width="210" height="26" as="geometry" />
        </mxCell>
        <mxCell id="685X49SJKfuo1PtqeQpH-198" value="-introductory_text:String" style="text;html=1;align=left;verticalAlign=middle;resizable=0;points=[];autosize=1;strokeColor=none;fillColor=none;" vertex="1" parent="685X49SJKfuo1PtqeQpH-196">
          <mxGeometry y="52" width="210" height="26" as="geometry" />
        </mxCell>
        <mxCell id="685X49SJKfuo1PtqeQpH-199" value="-area:String" style="text;html=1;align=left;verticalAlign=middle;resizable=0;points=[];autosize=1;strokeColor=none;fillColor=none;" vertex="1" parent="685X49SJKfuo1PtqeQpH-196">
          <mxGeometry y="78" width="210" height="26" as="geometry" />
        </mxCell>
        <mxCell id="685X49SJKfuo1PtqeQpH-200" value="-photos:ArrayList&amp;lt;File&amp;gt;" style="text;html=1;align=left;verticalAlign=middle;resizable=0;points=[];autosize=1;strokeColor=none;fillColor=none;" vertex="1" parent="685X49SJKfuo1PtqeQpH-196">
          <mxGeometry y="104" width="210" height="26" as="geometry" />
        </mxCell>
        <mxCell id="685X49SJKfuo1PtqeQpH-201" value="-location:Location" style="text;html=1;align=left;verticalAlign=middle;resizable=0;points=[];autosize=1;strokeColor=none;fillColor=none;" vertex="1" parent="685X49SJKfuo1PtqeQpH-196">
          <mxGeometry y="130" width="210" height="26" as="geometry" />
        </mxCell>
        <mxCell id="685X49SJKfuo1PtqeQpH-202" value="-contributor:User" style="text;html=1;align=left;verticalAlign=middle;resizable=0;points=[];autosize=1;strokeColor=none;fillColor=none;" vertex="1" parent="685X49SJKfuo1PtqeQpH-196">
          <mxGeometry y="156" width="210" height="26" as="geometry" />
        </mxCell>
        <mxCell id="685X49SJKfuo1PtqeQpH-203" value="-approved_by:Admin" style="text;html=1;align=left;verticalAlign=middle;resizable=0;points=[];autosize=1;strokeColor=none;fillColor=none;" vertex="1" parent="685X49SJKfuo1PtqeQpH-196">
          <mxGeometry y="182" width="210" height="26" as="geometry" />
        </mxCell>
        <mxCell id="685X49SJKfuo1PtqeQpH-204" value="" style="line;strokeWidth=1;fillColor=none;align=left;verticalAlign=middle;spacingTop=-1;spacingLeft=3;spacingRight=3;rotatable=0;labelPosition=right;points=[];portConstraint=eastwest;strokeColor=inherit;" vertex="1" parent="685X49SJKfuo1PtqeQpH-196">
          <mxGeometry y="208" width="210" height="10" as="geometry" />
        </mxCell>
        <mxCell id="685X49SJKfuo1PtqeQpH-205" value="+getTitle():String" style="text;html=1;align=left;verticalAlign=middle;resizable=0;points=[];autosize=1;strokeColor=none;fillColor=none;" vertex="1" parent="685X49SJKfuo1PtqeQpH-196">
          <mxGeometry y="218" width="210" height="26" as="geometry" />
        </mxCell>
        <mxCell id="685X49SJKfuo1PtqeQpH-206" value="+getText():String" style="text;html=1;align=left;verticalAlign=middle;resizable=0;points=[];autosize=1;strokeColor=none;fillColor=none;" vertex="1" parent="685X49SJKfuo1PtqeQpH-196">
          <mxGeometry y="244" width="210" height="26" as="geometry" />
        </mxCell>
        <mxCell id="685X49SJKfuo1PtqeQpH-207" value="&lt;span style=&quot;color: rgb(0, 0, 0); font-family: Helvetica; font-size: 12px; font-style: normal; font-variant-ligatures: normal; font-variant-caps: normal; font-weight: 400; letter-spacing: normal; orphans: 2; text-align: left; text-indent: 0px; text-transform: none; widows: 2; word-spacing: 0px; -webkit-text-stroke-width: 0px; white-space: nowrap; background-color: rgb(255, 255, 255); text-decoration-thickness: initial; text-decoration-style: initial; text-decoration-color: initial; display: inline !important; float: none;&quot;&gt;+getMultimedia()&lt;/span&gt;:ArrayList&amp;lt;File&amp;gt;" style="text;whiteSpace=wrap;html=1;" vertex="1" parent="685X49SJKfuo1PtqeQpH-196">
          <mxGeometry y="270" width="210" height="26" as="geometry" />
        </mxCell>
        <mxCell id="685X49SJKfuo1PtqeQpH-208" value="&lt;span style=&quot;color: rgb(0, 0, 0); font-family: Helvetica; font-size: 12px; font-style: normal; font-variant-ligatures: normal; font-variant-caps: normal; font-weight: 400; letter-spacing: normal; orphans: 2; text-align: left; text-indent: 0px; text-transform: none; widows: 2; word-spacing: 0px; -webkit-text-stroke-width: 0px; white-space: nowrap; background-color: rgb(255, 255, 255); text-decoration-thickness: initial; text-decoration-style: initial; text-decoration-color: initial; display: inline !important; float: none;&quot;&gt;+getPointCoordinates()&lt;/span&gt;:Location" style="text;whiteSpace=wrap;html=1;" vertex="1" parent="685X49SJKfuo1PtqeQpH-196">
          <mxGeometry y="296" width="210" height="29" as="geometry" />
        </mxCell>
        <mxCell id="685X49SJKfuo1PtqeQpH-209" value="+getReports():ArrayList&amp;lt;Report&amp;gt;" style="text;html=1;align=left;verticalAlign=middle;resizable=0;points=[];autosize=1;strokeColor=none;fillColor=none;" vertex="1" parent="685X49SJKfuo1PtqeQpH-196">
          <mxGeometry y="325" width="210" height="26" as="geometry" />
        </mxCell>
        <mxCell id="685X49SJKfuo1PtqeQpH-210" value="+getContributor():User" style="text;html=1;align=left;verticalAlign=middle;resizable=0;points=[];autosize=1;strokeColor=none;fillColor=none;" vertex="1" parent="685X49SJKfuo1PtqeQpH-196">
          <mxGeometry y="351" width="210" height="26" as="geometry" />
        </mxCell>
        <mxCell id="685X49SJKfuo1PtqeQpH-211" value="+deleteFromDatabase():void" style="text;html=1;align=left;verticalAlign=middle;resizable=0;points=[];autosize=1;strokeColor=none;fillColor=none;" vertex="1" parent="685X49SJKfuo1PtqeQpH-196">
          <mxGeometry y="377" width="210" height="26" as="geometry" />
        </mxCell>
        <mxCell id="685X49SJKfuo1PtqeQpH-212" value="+deleteReports():void" style="text;html=1;align=left;verticalAlign=middle;resizable=0;points=[];autosize=1;strokeColor=none;fillColor=none;" vertex="1" parent="685X49SJKfuo1PtqeQpH-196">
          <mxGeometry y="403" width="210" height="26" as="geometry" />
        </mxCell>
        <mxCell id="685X49SJKfuo1PtqeQpH-213" value="+addMultimedia(ArrayList&amp;lt;File&amp;gt;):void" style="text;html=1;align=left;verticalAlign=middle;resizable=0;points=[];autosize=1;strokeColor=none;fillColor=none;" vertex="1" parent="685X49SJKfuo1PtqeQpH-196">
          <mxGeometry y="429" width="210" height="26" as="geometry" />
        </mxCell>
        <mxCell id="685X49SJKfuo1PtqeQpH-214" value="+storeInDatabase():void" style="text;html=1;align=left;verticalAlign=middle;resizable=0;points=[];autosize=1;strokeColor=none;fillColor=none;" vertex="1" parent="685X49SJKfuo1PtqeQpH-196">
          <mxGeometry y="455" width="210" height="26" as="geometry" />
        </mxCell>
        <mxCell id="685X49SJKfuo1PtqeQpH-215" value="MapManager" style="swimlane;fontStyle=1;align=center;verticalAlign=top;childLayout=stackLayout;horizontal=1;startSize=26;horizontalStack=0;resizeParent=1;resizeLast=0;collapsible=1;marginBottom=0;rounded=0;shadow=0;strokeWidth=1;fillColor=#dae8fc;strokeColor=#6c8ebf;" vertex="1" parent="1">
          <mxGeometry x="-1544" y="219" width="186" height="56" as="geometry">
            <mxRectangle x="340" y="380" width="170" height="26" as="alternateBounds" />
          </mxGeometry>
        </mxCell>
        <mxCell id="685X49SJKfuo1PtqeQpH-216" value="+requestMap():MapView" style="text;html=1;align=left;verticalAlign=middle;resizable=0;points=[];autosize=1;strokeColor=none;fillColor=none;" vertex="1" parent="685X49SJKfuo1PtqeQpH-215">
          <mxGeometry y="26" width="186" height="26" as="geometry" />
        </mxCell>
        <mxCell id="685X49SJKfuo1PtqeQpH-217" value="NavigationManager" style="swimlane;fontStyle=1;align=center;verticalAlign=top;childLayout=stackLayout;horizontal=1;startSize=26;horizontalStack=0;resizeParent=1;resizeLast=0;collapsible=1;marginBottom=0;rounded=0;shadow=0;strokeWidth=1;fillColor=#dae8fc;strokeColor=#6c8ebf;" vertex="1" parent="1">
          <mxGeometry x="-1607" y="336" width="325.5" height="78" as="geometry">
            <mxRectangle x="340" y="380" width="170" height="26" as="alternateBounds" />
          </mxGeometry>
        </mxCell>
        <mxCell id="685X49SJKfuo1PtqeQpH-218" value="+requestInstructions(Location):JSONObject" style="text;html=1;align=left;verticalAlign=middle;resizable=0;points=[];autosize=1;strokeColor=none;fillColor=none;" vertex="1" parent="685X49SJKfuo1PtqeQpH-217">
          <mxGeometry y="26" width="325.5" height="26" as="geometry" />
        </mxCell>
        <mxCell id="685X49SJKfuo1PtqeQpH-219" value="+requestHistoricWalkInstructions(HistoricWalk):JSONObject" style="text;html=1;align=left;verticalAlign=middle;resizable=0;points=[];autosize=1;strokeColor=none;fillColor=none;" vertex="1" parent="685X49SJKfuo1PtqeQpH-217">
          <mxGeometry y="52" width="325.5" height="26" as="geometry" />
        </mxCell>
        <mxCell id="685X49SJKfuo1PtqeQpH-220" value="Map" style="swimlane;fontStyle=1;align=center;verticalAlign=top;childLayout=stackLayout;horizontal=1;startSize=30;horizontalStack=0;resizeParent=1;resizeLast=0;collapsible=1;marginBottom=0;rounded=0;shadow=0;strokeWidth=1;fillColor=#dae8fc;strokeColor=#6c8ebf;" vertex="1" parent="1">
          <mxGeometry x="462" y="-58" width="304" height="116" as="geometry">
            <mxRectangle x="550" y="140" width="160" height="26" as="alternateBounds" />
          </mxGeometry>
        </mxCell>
        <mxCell id="685X49SJKfuo1PtqeQpH-221" value="-map:MapView" style="text;html=1;align=left;verticalAlign=middle;resizable=0;points=[];autosize=1;strokeColor=none;fillColor=none;" vertex="1" parent="685X49SJKfuo1PtqeQpH-220">
          <mxGeometry y="30" width="304" height="26" as="geometry" />
        </mxCell>
        <mxCell id="685X49SJKfuo1PtqeQpH-222" value="" style="line;strokeWidth=1;fillColor=none;align=left;verticalAlign=middle;spacingTop=-1;spacingLeft=3;spacingRight=3;rotatable=0;labelPosition=right;points=[];portConstraint=eastwest;strokeColor=inherit;" vertex="1" parent="685X49SJKfuo1PtqeQpH-220">
          <mxGeometry y="56" width="304" height="8" as="geometry" />
        </mxCell>
        <mxCell id="685X49SJKfuo1PtqeQpH-223" value="+addHistoricPoints(HistoricPointsList):void" style="text;html=1;align=left;verticalAlign=middle;resizable=0;points=[];autosize=1;strokeColor=none;fillColor=none;" vertex="1" parent="685X49SJKfuo1PtqeQpH-220">
          <mxGeometry y="64" width="304" height="26" as="geometry" />
        </mxCell>
        <mxCell id="685X49SJKfuo1PtqeQpH-224" value="+addNavigationInstructions(NavigationInstructions):void" style="text;html=1;align=left;verticalAlign=middle;resizable=0;points=[];autosize=1;strokeColor=none;fillColor=none;" vertex="1" parent="685X49SJKfuo1PtqeQpH-220">
          <mxGeometry y="90" width="304" height="26" as="geometry" />
        </mxCell>
        <mxCell id="685X49SJKfuo1PtqeQpH-225" value="Location" style="swimlane;fontStyle=1;align=center;verticalAlign=top;childLayout=stackLayout;horizontal=1;startSize=30;horizontalStack=0;resizeParent=1;resizeLast=0;collapsible=1;marginBottom=0;rounded=0;shadow=0;strokeWidth=1;fillColor=#dae8fc;strokeColor=#6c8ebf;" vertex="1" parent="1">
          <mxGeometry x="-262" y="-164" width="185" height="194" as="geometry">
            <mxRectangle x="550" y="140" width="160" height="26" as="alternateBounds" />
          </mxGeometry>
        </mxCell>
        <mxCell id="685X49SJKfuo1PtqeQpH-226" value="-lat:float" style="text;html=1;align=left;verticalAlign=middle;resizable=0;points=[];autosize=1;strokeColor=none;fillColor=none;" vertex="1" parent="685X49SJKfuo1PtqeQpH-225">
          <mxGeometry y="30" width="185" height="26" as="geometry" />
        </mxCell>
        <mxCell id="685X49SJKfuo1PtqeQpH-227" value="-lon:float" style="text;html=1;align=left;verticalAlign=middle;resizable=0;points=[];autosize=1;strokeColor=none;fillColor=none;" vertex="1" parent="685X49SJKfuo1PtqeQpH-225">
          <mxGeometry y="56" width="185" height="26" as="geometry" />
        </mxCell>
        <mxCell id="685X49SJKfuo1PtqeQpH-228" value="-city:String" style="text;html=1;align=left;verticalAlign=middle;resizable=0;points=[];autosize=1;strokeColor=none;fillColor=none;" vertex="1" parent="685X49SJKfuo1PtqeQpH-225">
          <mxGeometry y="82" width="185" height="26" as="geometry" />
        </mxCell>
        <mxCell id="685X49SJKfuo1PtqeQpH-229" value="" style="line;strokeWidth=1;fillColor=none;align=left;verticalAlign=middle;spacingTop=-1;spacingLeft=3;spacingRight=3;rotatable=0;labelPosition=right;points=[];portConstraint=eastwest;strokeColor=inherit;" vertex="1" parent="685X49SJKfuo1PtqeQpH-225">
          <mxGeometry y="108" width="185" height="8" as="geometry" />
        </mxCell>
        <mxCell id="685X49SJKfuo1PtqeQpH-230" value="+getCity():String" style="text;strokeColor=none;fillColor=none;align=left;verticalAlign=top;spacingLeft=4;spacingRight=4;overflow=hidden;rotatable=0;points=[[0,0.5],[1,0.5]];portConstraint=eastwest;whiteSpace=wrap;html=1;" vertex="1" parent="685X49SJKfuo1PtqeQpH-225">
          <mxGeometry y="116" width="185" height="26" as="geometry" />
        </mxCell>
        <mxCell id="685X49SJKfuo1PtqeQpH-231" value="+updateLocation(Location):void" style="text;html=1;align=left;verticalAlign=middle;resizable=0;points=[];autosize=1;strokeColor=none;fillColor=none;" vertex="1" parent="685X49SJKfuo1PtqeQpH-225">
          <mxGeometry y="142" width="185" height="26" as="geometry" />
        </mxCell>
        <mxCell id="685X49SJKfuo1PtqeQpH-232" value="+getLocation():ArrayList&amp;lt;Float&amp;gt;" style="text;html=1;align=left;verticalAlign=middle;resizable=0;points=[];autosize=1;strokeColor=none;fillColor=none;" vertex="1" parent="685X49SJKfuo1PtqeQpH-225">
          <mxGeometry y="168" width="185" height="26" as="geometry" />
        </mxCell>
        <mxCell id="685X49SJKfuo1PtqeQpH-233" value="HistoricPointsList" style="swimlane;fontStyle=1;align=center;verticalAlign=top;childLayout=stackLayout;horizontal=1;startSize=26;horizontalStack=0;resizeParent=1;resizeParentMax=0;resizeLast=0;collapsible=1;marginBottom=0;whiteSpace=wrap;html=1;fillColor=#dae8fc;strokeColor=#6c8ebf;" vertex="1" parent="1">
          <mxGeometry x="-870.5" y="874" width="301" height="117" as="geometry" />
        </mxCell>
        <mxCell id="685X49SJKfuo1PtqeQpH-234" value="-historic_points:ArrayList&amp;lt;HistoricPoint&amp;gt;" style="text;html=1;align=left;verticalAlign=middle;resizable=0;points=[];autosize=1;strokeColor=none;fillColor=none;" vertex="1" parent="685X49SJKfuo1PtqeQpH-233">
          <mxGeometry y="26" width="301" height="26" as="geometry" />
        </mxCell>
        <mxCell id="685X49SJKfuo1PtqeQpH-235" value="" style="line;strokeWidth=1;fillColor=none;align=left;verticalAlign=middle;spacingTop=-1;spacingLeft=3;spacingRight=3;rotatable=0;labelPosition=right;points=[];portConstraint=eastwest;strokeColor=inherit;" vertex="1" parent="685X49SJKfuo1PtqeQpH-233">
          <mxGeometry y="52" width="301" height="10" as="geometry" />
        </mxCell>
        <mxCell id="685X49SJKfuo1PtqeQpH-236" value="&lt;span style=&quot;color: rgb(0, 0, 0); font-family: Helvetica; font-size: 12px; font-style: normal; font-variant-ligatures: normal; font-variant-caps: normal; font-weight: 400; letter-spacing: normal; orphans: 2; text-align: left; text-indent: 0px; text-transform: none; widows: 2; word-spacing: 0px; -webkit-text-stroke-width: 0px; white-space: nowrap; background-color: rgb(255, 255, 255); text-decoration-thickness: initial; text-decoration-style: initial; text-decoration-color: initial; display: inline !important; float: none;&quot;&gt;+getHistoricPoint(Location)&lt;/span&gt;:HistoricPoint" style="text;whiteSpace=wrap;html=1;" vertex="1" parent="685X49SJKfuo1PtqeQpH-233">
          <mxGeometry y="62" width="301" height="29" as="geometry" />
        </mxCell>
        <mxCell id="685X49SJKfuo1PtqeQpH-237" value="+filterBasedOnSearch(String):ArrayList&amp;lt;HistoricPoint&amp;gt;" style="text;html=1;align=left;verticalAlign=middle;resizable=0;points=[];autosize=1;strokeColor=none;fillColor=none;" vertex="1" parent="685X49SJKfuo1PtqeQpH-233">
          <mxGeometry y="91" width="301" height="26" as="geometry" />
        </mxCell>
        <mxCell id="685X49SJKfuo1PtqeQpH-238" value="NavigationInstructions" style="swimlane;fontStyle=1;align=center;verticalAlign=top;childLayout=stackLayout;horizontal=1;startSize=26;horizontalStack=0;resizeParent=1;resizeParentMax=0;resizeLast=0;collapsible=1;marginBottom=0;whiteSpace=wrap;html=1;fillColor=#dae8fc;strokeColor=#6c8ebf;" vertex="1" parent="1">
          <mxGeometry x="481.38" y="-231" width="241" height="140" as="geometry" />
        </mxCell>
        <mxCell id="685X49SJKfuo1PtqeQpH-239" value="-instructions:ArrayList&amp;lt;String&amp;gt;" style="text;html=1;align=left;verticalAlign=middle;resizable=0;points=[];autosize=1;strokeColor=none;fillColor=none;" vertex="1" parent="685X49SJKfuo1PtqeQpH-238">
          <mxGeometry y="26" width="241" height="26" as="geometry" />
        </mxCell>
        <mxCell id="685X49SJKfuo1PtqeQpH-240" value="-nodes: ArrayList&amp;lt;Location&amp;gt;" style="text;html=1;align=left;verticalAlign=middle;resizable=0;points=[];autosize=1;strokeColor=none;fillColor=none;" vertex="1" parent="685X49SJKfuo1PtqeQpH-238">
          <mxGeometry y="52" width="241" height="26" as="geometry" />
        </mxCell>
        <mxCell id="685X49SJKfuo1PtqeQpH-241" value="" style="line;strokeWidth=1;fillColor=none;align=left;verticalAlign=middle;spacingTop=-1;spacingLeft=3;spacingRight=3;rotatable=0;labelPosition=right;points=[];portConstraint=eastwest;strokeColor=inherit;" vertex="1" parent="685X49SJKfuo1PtqeQpH-238">
          <mxGeometry y="78" width="241" height="10" as="geometry" />
        </mxCell>
        <mxCell id="685X49SJKfuo1PtqeQpH-242" value="+getInstructions():ArrayList&amp;lt;String&amp;gt;" style="text;html=1;align=left;verticalAlign=middle;resizable=0;points=[];autosize=1;strokeColor=none;fillColor=none;" vertex="1" parent="685X49SJKfuo1PtqeQpH-238">
          <mxGeometry y="88" width="241" height="26" as="geometry" />
        </mxCell>
        <mxCell id="685X49SJKfuo1PtqeQpH-243" value="+getNodes():ArrayList&amp;lt;Location&amp;gt;" style="text;html=1;align=left;verticalAlign=middle;resizable=0;points=[];autosize=1;strokeColor=none;fillColor=none;" vertex="1" parent="685X49SJKfuo1PtqeQpH-238">
          <mxGeometry y="114" width="241" height="26" as="geometry" />
        </mxCell>
        <mxCell id="685X49SJKfuo1PtqeQpH-244" value="ContributionsList" style="swimlane;fontStyle=1;align=center;verticalAlign=top;childLayout=stackLayout;horizontal=1;startSize=26;horizontalStack=0;resizeParent=1;resizeParentMax=0;resizeLast=0;collapsible=1;marginBottom=0;whiteSpace=wrap;html=1;fillColor=#dae8fc;strokeColor=#6c8ebf;" vertex="1" parent="1">
          <mxGeometry x="54.5" y="-612" width="214" height="88" as="geometry" />
        </mxCell>
        <mxCell id="685X49SJKfuo1PtqeQpH-245" value="-contributions:ArrayList&amp;lt;Contribution&amp;gt;" style="text;html=1;align=left;verticalAlign=middle;resizable=0;points=[];autosize=1;strokeColor=none;fillColor=none;" vertex="1" parent="685X49SJKfuo1PtqeQpH-244">
          <mxGeometry y="26" width="214" height="26" as="geometry" />
        </mxCell>
        <mxCell id="685X49SJKfuo1PtqeQpH-246" value="" style="line;strokeWidth=1;fillColor=none;align=left;verticalAlign=middle;spacingTop=-1;spacingLeft=3;spacingRight=3;rotatable=0;labelPosition=right;points=[];portConstraint=eastwest;strokeColor=inherit;" vertex="1" parent="685X49SJKfuo1PtqeQpH-244">
          <mxGeometry y="52" width="214" height="10" as="geometry" />
        </mxCell>
        <mxCell id="685X49SJKfuo1PtqeQpH-247" value="+getContribution(String):Contribution" style="text;html=1;align=left;verticalAlign=middle;resizable=0;points=[];autosize=1;strokeColor=none;fillColor=none;" vertex="1" parent="685X49SJKfuo1PtqeQpH-244">
          <mxGeometry y="62" width="214" height="26" as="geometry" />
        </mxCell>
        <mxCell id="685X49SJKfuo1PtqeQpH-248" value="ToursList" style="swimlane;fontStyle=1;align=center;verticalAlign=top;childLayout=stackLayout;horizontal=1;startSize=26;horizontalStack=0;resizeParent=1;resizeParentMax=0;resizeLast=0;collapsible=1;marginBottom=0;whiteSpace=wrap;html=1;fillColor=#dae8fc;strokeColor=#6c8ebf;" vertex="1" parent="1">
          <mxGeometry x="493.88" y="515.5" width="160" height="88" as="geometry" />
        </mxCell>
        <mxCell id="685X49SJKfuo1PtqeQpH-249" value="-tours:ArrayList&amp;lt;Tour&amp;gt;" style="text;html=1;align=left;verticalAlign=middle;resizable=0;points=[];autosize=1;strokeColor=none;fillColor=none;" vertex="1" parent="685X49SJKfuo1PtqeQpH-248">
          <mxGeometry y="26" width="160" height="26" as="geometry" />
        </mxCell>
        <mxCell id="685X49SJKfuo1PtqeQpH-250" value="" style="line;strokeWidth=1;fillColor=none;align=left;verticalAlign=middle;spacingTop=-1;spacingLeft=3;spacingRight=3;rotatable=0;labelPosition=right;points=[];portConstraint=eastwest;strokeColor=inherit;" vertex="1" parent="685X49SJKfuo1PtqeQpH-248">
          <mxGeometry y="52" width="160" height="10" as="geometry" />
        </mxCell>
        <mxCell id="685X49SJKfuo1PtqeQpH-251" value="+getTour(String):Tour" style="text;html=1;align=left;verticalAlign=middle;resizable=0;points=[];autosize=1;strokeColor=none;fillColor=none;" vertex="1" parent="685X49SJKfuo1PtqeQpH-248">
          <mxGeometry y="62" width="160" height="26" as="geometry" />
        </mxCell>
        <mxCell id="685X49SJKfuo1PtqeQpH-252" value="HistoricWalksList" style="swimlane;fontStyle=1;align=center;verticalAlign=top;childLayout=stackLayout;horizontal=1;startSize=26;horizontalStack=0;resizeParent=1;resizeParentMax=0;resizeLast=0;collapsible=1;marginBottom=0;whiteSpace=wrap;html=1;fillColor=#dae8fc;strokeColor=#6c8ebf;" vertex="1" parent="1">
          <mxGeometry x="-832" y="-348" width="224" height="88" as="geometry" />
        </mxCell>
        <mxCell id="685X49SJKfuo1PtqeQpH-253" value="-historic_walks:ArrayList&amp;lt;HistoricWalk&amp;gt;" style="text;html=1;align=left;verticalAlign=middle;resizable=0;points=[];autosize=1;strokeColor=none;fillColor=none;" vertex="1" parent="685X49SJKfuo1PtqeQpH-252">
          <mxGeometry y="26" width="224" height="26" as="geometry" />
        </mxCell>
        <mxCell id="685X49SJKfuo1PtqeQpH-254" value="" style="line;strokeWidth=1;fillColor=none;align=left;verticalAlign=middle;spacingTop=-1;spacingLeft=3;spacingRight=3;rotatable=0;labelPosition=right;points=[];portConstraint=eastwest;strokeColor=inherit;" vertex="1" parent="685X49SJKfuo1PtqeQpH-252">
          <mxGeometry y="52" width="224" height="10" as="geometry" />
        </mxCell>
        <mxCell id="685X49SJKfuo1PtqeQpH-255" value="+getHistoricWalk(String):HistoricWalk" style="text;html=1;align=left;verticalAlign=middle;resizable=0;points=[];autosize=1;strokeColor=none;fillColor=none;" vertex="1" parent="685X49SJKfuo1PtqeQpH-252">
          <mxGeometry y="62" width="224" height="26" as="geometry" />
        </mxCell>
        <mxCell id="685X49SJKfuo1PtqeQpH-256" style="rounded=1;orthogonalLoop=1;jettySize=auto;html=1;strokeColor=default;align=center;verticalAlign=middle;fontFamily=Helvetica;fontSize=11;fontColor=default;labelBackgroundColor=default;elbow=vertical;endArrow=baseDash;endFill=0;endSize=0;" edge="1" parent="1" source="685X49SJKfuo1PtqeQpH-252" target="685X49SJKfuo1PtqeQpH-33">
          <mxGeometry relative="1" as="geometry">
            <mxPoint x="-608" y="-254" as="sourcePoint" />
            <mxPoint x="-383" y="-168" as="targetPoint" />
          </mxGeometry>
        </mxCell>
        <mxCell id="685X49SJKfuo1PtqeQpH-257" style="rounded=1;orthogonalLoop=1;jettySize=auto;html=1;strokeColor=default;align=center;verticalAlign=middle;fontFamily=Helvetica;fontSize=11;fontColor=default;labelBackgroundColor=default;elbow=vertical;endArrow=baseDash;endFill=0;endSize=0;" edge="1" parent="1" source="685X49SJKfuo1PtqeQpH-196" target="685X49SJKfuo1PtqeQpH-233">
          <mxGeometry relative="1" as="geometry">
            <mxPoint x="-577" y="834" as="sourcePoint" />
            <mxPoint x="-577" y="919" as="targetPoint" />
          </mxGeometry>
        </mxCell>
        <mxCell id="685X49SJKfuo1PtqeQpH-258" style="rounded=1;orthogonalLoop=1;jettySize=auto;html=1;strokeColor=default;align=center;verticalAlign=middle;fontFamily=Helvetica;fontSize=11;fontColor=default;labelBackgroundColor=default;elbow=vertical;endArrow=baseDash;endFill=0;endSize=0;" edge="1" parent="1" source="685X49SJKfuo1PtqeQpH-248" target="685X49SJKfuo1PtqeQpH-57">
          <mxGeometry relative="1" as="geometry">
            <mxPoint x="728" y="133" as="sourcePoint" />
            <mxPoint x="728" y="218" as="targetPoint" />
          </mxGeometry>
        </mxCell>
        <mxCell id="685X49SJKfuo1PtqeQpH-259" style="rounded=1;orthogonalLoop=1;jettySize=auto;html=1;strokeColor=default;align=center;verticalAlign=middle;fontFamily=Helvetica;fontSize=11;fontColor=default;labelBackgroundColor=default;elbow=vertical;endArrow=baseDash;endFill=0;endSize=0;" edge="1" parent="1" source="685X49SJKfuo1PtqeQpH-244" target="685X49SJKfuo1PtqeQpH-121">
          <mxGeometry relative="1" as="geometry">
            <mxPoint x="3" y="-500" as="sourcePoint" />
            <mxPoint x="3" y="-415" as="targetPoint" />
          </mxGeometry>
        </mxCell>
        <mxCell id="685X49SJKfuo1PtqeQpH-260" value="home_menu_page" style="swimlane;fontStyle=1;align=center;verticalAlign=top;childLayout=stackLayout;horizontal=1;startSize=26;horizontalStack=0;resizeParent=1;resizeParentMax=0;resizeLast=0;collapsible=1;marginBottom=0;whiteSpace=wrap;html=1;fillColor=#647687;strokeColor=#314354;fontColor=#ffffff;" vertex="1" parent="1">
          <mxGeometry x="673" y="-866" width="224" height="286" as="geometry">
            <mxRectangle x="691" y="-675" width="135" height="26" as="alternateBounds" />
          </mxGeometry>
        </mxCell>
        <mxCell id="685X49SJKfuo1PtqeQpH-261" value="+visitHistoricPoint():void" style="text;html=1;align=left;verticalAlign=middle;resizable=0;points=[];autosize=1;strokeColor=none;fillColor=none;" vertex="1" parent="685X49SJKfuo1PtqeQpH-260">
          <mxGeometry y="26" width="224" height="26" as="geometry" />
        </mxCell>
        <mxCell id="685X49SJKfuo1PtqeQpH-262" value="+contributeHistoricPoint():void" style="text;html=1;align=left;verticalAlign=middle;resizable=0;points=[];autosize=1;strokeColor=none;fillColor=none;" vertex="1" parent="685X49SJKfuo1PtqeQpH-260">
          <mxGeometry y="52" width="224" height="26" as="geometry" />
        </mxCell>
        <mxCell id="685X49SJKfuo1PtqeQpH-263" value="+contributeHistoricWalk():void" style="text;html=1;align=left;verticalAlign=middle;resizable=0;points=[];autosize=1;strokeColor=none;fillColor=none;" vertex="1" parent="685X49SJKfuo1PtqeQpH-260">
          <mxGeometry y="78" width="224" height="26" as="geometry" />
        </mxCell>
        <mxCell id="685X49SJKfuo1PtqeQpH-264" value="+displayHistoricWalks():void" style="text;html=1;align=left;verticalAlign=middle;resizable=0;points=[];autosize=1;strokeColor=none;fillColor=none;" vertex="1" parent="685X49SJKfuo1PtqeQpH-260">
          <mxGeometry y="104" width="224" height="26" as="geometry" />
        </mxCell>
        <mxCell id="685X49SJKfuo1PtqeQpH-265" value="+displayVisitingsHistory():void" style="text;html=1;align=left;verticalAlign=middle;resizable=0;points=[];autosize=1;strokeColor=none;fillColor=none;" vertex="1" parent="685X49SJKfuo1PtqeQpH-260">
          <mxGeometry y="130" width="224" height="26" as="geometry" />
        </mxCell>
        <mxCell id="685X49SJKfuo1PtqeQpH-266" value="+displayContributions():void" style="text;html=1;align=left;verticalAlign=middle;resizable=0;points=[];autosize=1;strokeColor=none;fillColor=none;" vertex="1" parent="685X49SJKfuo1PtqeQpH-260">
          <mxGeometry y="156" width="224" height="26" as="geometry" />
        </mxCell>
        <mxCell id="685X49SJKfuo1PtqeQpH-267" value="+displayTours():void" style="text;html=1;align=left;verticalAlign=middle;resizable=0;points=[];autosize=1;strokeColor=none;fillColor=none;" vertex="1" parent="685X49SJKfuo1PtqeQpH-260">
          <mxGeometry y="182" width="224" height="26" as="geometry" />
        </mxCell>
        <mxCell id="685X49SJKfuo1PtqeQpH-268" value="+displayHistoricPointsWithReport():void" style="text;html=1;align=left;verticalAlign=middle;resizable=0;points=[];autosize=1;strokeColor=none;fillColor=none;" vertex="1" parent="685X49SJKfuo1PtqeQpH-260">
          <mxGeometry y="208" width="224" height="26" as="geometry" />
        </mxCell>
        <mxCell id="685X49SJKfuo1PtqeQpH-269" value="+show():void" style="text;html=1;align=left;verticalAlign=middle;resizable=0;points=[];autosize=1;strokeColor=none;fillColor=none;" vertex="1" parent="685X49SJKfuo1PtqeQpH-260">
          <mxGeometry y="234" width="224" height="26" as="geometry" />
        </mxCell>
        <mxCell id="685X49SJKfuo1PtqeQpH-270" value="+goBack():void" style="text;html=1;align=left;verticalAlign=middle;resizable=0;points=[];autosize=1;strokeColor=none;fillColor=none;" vertex="1" parent="685X49SJKfuo1PtqeQpH-260">
          <mxGeometry y="260" width="224" height="26" as="geometry" />
        </mxCell>
        <mxCell id="685X49SJKfuo1PtqeQpH-271" value="historic_points_map_page" style="swimlane;fontStyle=1;align=center;verticalAlign=top;childLayout=stackLayout;horizontal=1;startSize=26;horizontalStack=0;resizeParent=1;resizeParentMax=0;resizeLast=0;collapsible=1;marginBottom=0;whiteSpace=wrap;html=1;fillColor=#647687;strokeColor=#314354;fontColor=#ffffff;" vertex="1" parent="1">
          <mxGeometry x="685" y="-565" width="180" height="130" as="geometry">
            <mxRectangle x="694" y="-532" width="135" height="26" as="alternateBounds" />
          </mxGeometry>
        </mxCell>
        <mxCell id="685X49SJKfuo1PtqeQpH-272" value="+show():void" style="text;html=1;align=left;verticalAlign=middle;resizable=0;points=[];autosize=1;strokeColor=none;fillColor=none;" vertex="1" parent="685X49SJKfuo1PtqeQpH-271">
          <mxGeometry y="26" width="180" height="26" as="geometry" />
        </mxCell>
        <mxCell id="685X49SJKfuo1PtqeQpH-273" value="+makesSearch():void" style="text;html=1;align=left;verticalAlign=middle;resizable=0;points=[];autosize=1;strokeColor=none;fillColor=none;" vertex="1" parent="685X49SJKfuo1PtqeQpH-271">
          <mxGeometry y="52" width="180" height="26" as="geometry" />
        </mxCell>
        <mxCell id="685X49SJKfuo1PtqeQpH-274" value="+choose():void" style="text;html=1;align=left;verticalAlign=middle;resizable=0;points=[];autosize=1;strokeColor=none;fillColor=none;" vertex="1" parent="685X49SJKfuo1PtqeQpH-271">
          <mxGeometry y="78" width="180" height="26" as="geometry" />
        </mxCell>
        <mxCell id="685X49SJKfuo1PtqeQpH-275" value="+goBack():void" style="text;html=1;align=left;verticalAlign=middle;resizable=0;points=[];autosize=1;strokeColor=none;fillColor=none;" vertex="1" parent="685X49SJKfuo1PtqeQpH-271">
          <mxGeometry y="104" width="180" height="26" as="geometry" />
        </mxCell>
        <mxCell id="685X49SJKfuo1PtqeQpH-276" value="searched_historic_points_page" style="swimlane;fontStyle=1;align=center;verticalAlign=top;childLayout=stackLayout;horizontal=1;startSize=26;horizontalStack=0;resizeParent=1;resizeParentMax=0;resizeLast=0;collapsible=1;marginBottom=0;whiteSpace=wrap;html=1;fillColor=#647687;strokeColor=#314354;fontColor=#ffffff;" vertex="1" parent="1">
          <mxGeometry x="691" y="-405" width="180" height="104" as="geometry">
            <mxRectangle x="691" y="-675" width="135" height="26" as="alternateBounds" />
          </mxGeometry>
        </mxCell>
        <mxCell id="685X49SJKfuo1PtqeQpH-277" value="+show():void" style="text;html=1;align=left;verticalAlign=middle;resizable=0;points=[];autosize=1;strokeColor=none;fillColor=none;" vertex="1" parent="685X49SJKfuo1PtqeQpH-276">
          <mxGeometry y="26" width="180" height="26" as="geometry" />
        </mxCell>
        <mxCell id="685X49SJKfuo1PtqeQpH-278" value="+chooseHistoricPoint():void" style="text;html=1;align=left;verticalAlign=middle;resizable=0;points=[];autosize=1;strokeColor=none;fillColor=none;" vertex="1" parent="685X49SJKfuo1PtqeQpH-276">
          <mxGeometry y="52" width="180" height="26" as="geometry" />
        </mxCell>
        <mxCell id="685X49SJKfuo1PtqeQpH-279" value="+goBack():void" style="text;html=1;align=left;verticalAlign=middle;resizable=0;points=[];autosize=1;strokeColor=none;fillColor=none;" vertex="1" parent="685X49SJKfuo1PtqeQpH-276">
          <mxGeometry y="78" width="180" height="26" as="geometry" />
        </mxCell>
        <mxCell id="685X49SJKfuo1PtqeQpH-280" value="historic_point_info_page" style="swimlane;fontStyle=1;align=center;verticalAlign=top;childLayout=stackLayout;horizontal=1;startSize=26;horizontalStack=0;resizeParent=1;resizeParentMax=0;resizeLast=0;collapsible=1;marginBottom=0;whiteSpace=wrap;html=1;fillColor=#647687;strokeColor=#314354;fontColor=#ffffff;" vertex="1" parent="1">
          <mxGeometry x="923" y="-657" width="209" height="156" as="geometry">
            <mxRectangle x="691" y="-675" width="135" height="26" as="alternateBounds" />
          </mxGeometry>
        </mxCell>
        <mxCell id="685X49SJKfuo1PtqeQpH-281" value="+show():void" style="text;html=1;align=left;verticalAlign=middle;resizable=0;points=[];autosize=1;strokeColor=none;fillColor=none;" vertex="1" parent="685X49SJKfuo1PtqeQpH-280">
          <mxGeometry y="26" width="209" height="26" as="geometry" />
        </mxCell>
        <mxCell id="685X49SJKfuo1PtqeQpH-282" value="+chooseNavigationInstructions():void" style="text;html=1;align=left;verticalAlign=middle;resizable=0;points=[];autosize=1;strokeColor=none;fillColor=none;" vertex="1" parent="685X49SJKfuo1PtqeQpH-280">
          <mxGeometry y="52" width="209" height="26" as="geometry" />
        </mxCell>
        <mxCell id="685X49SJKfuo1PtqeQpH-283" value="+rateOrDeletePoint():void" style="text;html=1;align=left;verticalAlign=middle;resizable=0;points=[];autosize=1;strokeColor=none;fillColor=none;" vertex="1" parent="685X49SJKfuo1PtqeQpH-280">
          <mxGeometry y="78" width="209" height="26" as="geometry" />
        </mxCell>
        <mxCell id="685X49SJKfuo1PtqeQpH-284" value="+continueHistoricWalk():void" style="text;html=1;align=left;verticalAlign=middle;resizable=0;points=[];autosize=1;strokeColor=none;fillColor=none;" vertex="1" parent="685X49SJKfuo1PtqeQpH-280">
          <mxGeometry y="104" width="209" height="26" as="geometry" />
        </mxCell>
        <mxCell id="685X49SJKfuo1PtqeQpH-285" value="+goBack():void" style="text;html=1;align=left;verticalAlign=middle;resizable=0;points=[];autosize=1;strokeColor=none;fillColor=none;" vertex="1" parent="685X49SJKfuo1PtqeQpH-280">
          <mxGeometry y="130" width="209" height="26" as="geometry" />
        </mxCell>
        <mxCell id="685X49SJKfuo1PtqeQpH-286" value="navigation_page" style="swimlane;fontStyle=1;align=center;verticalAlign=top;childLayout=stackLayout;horizontal=1;startSize=26;horizontalStack=0;resizeParent=1;resizeParentMax=0;resizeLast=0;collapsible=1;marginBottom=0;whiteSpace=wrap;html=1;fillColor=#647687;strokeColor=#314354;fontColor=#ffffff;" vertex="1" parent="1">
          <mxGeometry x="933" y="-467" width="180" height="104" as="geometry">
            <mxRectangle x="691" y="-675" width="135" height="26" as="alternateBounds" />
          </mxGeometry>
        </mxCell>
        <mxCell id="685X49SJKfuo1PtqeQpH-287" value="+show():void" style="text;html=1;align=left;verticalAlign=middle;resizable=0;points=[];autosize=1;strokeColor=none;fillColor=none;" vertex="1" parent="685X49SJKfuo1PtqeQpH-286">
          <mxGeometry y="26" width="180" height="26" as="geometry" />
        </mxCell>
        <mxCell id="685X49SJKfuo1PtqeQpH-288" value="+contiue():void" style="text;html=1;align=left;verticalAlign=middle;resizable=0;points=[];autosize=1;strokeColor=none;fillColor=none;" vertex="1" parent="685X49SJKfuo1PtqeQpH-286">
          <mxGeometry y="52" width="180" height="26" as="geometry" />
        </mxCell>
        <mxCell id="685X49SJKfuo1PtqeQpH-289" value="+goBack():void" style="text;html=1;align=left;verticalAlign=middle;resizable=0;points=[];autosize=1;strokeColor=none;fillColor=none;" vertex="1" parent="685X49SJKfuo1PtqeQpH-286">
          <mxGeometry y="78" width="180" height="26" as="geometry" />
        </mxCell>
        <mxCell id="685X49SJKfuo1PtqeQpH-290" value="error_page" style="swimlane;fontStyle=1;align=center;verticalAlign=top;childLayout=stackLayout;horizontal=1;startSize=26;horizontalStack=0;resizeParent=1;resizeParentMax=0;resizeLast=0;collapsible=1;marginBottom=0;whiteSpace=wrap;html=1;fillColor=#647687;strokeColor=#314354;fontColor=#ffffff;" vertex="1" parent="1">
          <mxGeometry x="936" y="-327" width="180" height="78" as="geometry">
            <mxRectangle x="691" y="-675" width="135" height="26" as="alternateBounds" />
          </mxGeometry>
        </mxCell>
        <mxCell id="685X49SJKfuo1PtqeQpH-291" value="+show():void" style="text;html=1;align=left;verticalAlign=middle;resizable=0;points=[];autosize=1;strokeColor=none;fillColor=none;" vertex="1" parent="685X49SJKfuo1PtqeQpH-290">
          <mxGeometry y="26" width="180" height="26" as="geometry" />
        </mxCell>
        <mxCell id="685X49SJKfuo1PtqeQpH-292" value="+goBack():void" style="text;html=1;align=left;verticalAlign=middle;resizable=0;points=[];autosize=1;strokeColor=none;fillColor=none;" vertex="1" parent="685X49SJKfuo1PtqeQpH-290">
          <mxGeometry y="52" width="180" height="26" as="geometry" />
        </mxCell>
        <mxCell id="685X49SJKfuo1PtqeQpH-293" value="region_search_page" style="swimlane;fontStyle=1;align=center;verticalAlign=top;childLayout=stackLayout;horizontal=1;startSize=26;horizontalStack=0;resizeParent=1;resizeParentMax=0;resizeLast=0;collapsible=1;marginBottom=0;whiteSpace=wrap;html=1;fillColor=#647687;strokeColor=#314354;fontColor=#ffffff;" vertex="1" parent="1">
          <mxGeometry x="820" y="440" width="180" height="78" as="geometry">
            <mxRectangle x="691" y="-675" width="135" height="26" as="alternateBounds" />
          </mxGeometry>
        </mxCell>
        <mxCell id="685X49SJKfuo1PtqeQpH-294" value="+show():void" style="text;html=1;align=left;verticalAlign=middle;resizable=0;points=[];autosize=1;strokeColor=none;fillColor=none;" vertex="1" parent="685X49SJKfuo1PtqeQpH-293">
          <mxGeometry y="26" width="180" height="26" as="geometry" />
        </mxCell>
        <mxCell id="685X49SJKfuo1PtqeQpH-295" value="+goBack():void" style="text;html=1;align=left;verticalAlign=middle;resizable=0;points=[];autosize=1;strokeColor=none;fillColor=none;" vertex="1" parent="685X49SJKfuo1PtqeQpH-293">
          <mxGeometry y="52" width="180" height="26" as="geometry" />
        </mxCell>
        <mxCell id="685X49SJKfuo1PtqeQpH-296" value="new_contribution_map_page" style="swimlane;fontStyle=1;align=center;verticalAlign=top;childLayout=stackLayout;horizontal=1;startSize=26;horizontalStack=0;resizeParent=1;resizeParentMax=0;resizeLast=0;collapsible=1;marginBottom=0;whiteSpace=wrap;html=1;fillColor=#647687;strokeColor=#314354;fontColor=#ffffff;" vertex="1" parent="1">
          <mxGeometry x="820" y="542" width="180" height="104" as="geometry">
            <mxRectangle x="691" y="-675" width="135" height="26" as="alternateBounds" />
          </mxGeometry>
        </mxCell>
        <mxCell id="685X49SJKfuo1PtqeQpH-297" value="+show():void" style="text;html=1;align=left;verticalAlign=middle;resizable=0;points=[];autosize=1;strokeColor=none;fillColor=none;" vertex="1" parent="685X49SJKfuo1PtqeQpH-296">
          <mxGeometry y="26" width="180" height="26" as="geometry" />
        </mxCell>
        <mxCell id="685X49SJKfuo1PtqeQpH-298" value="+choosePoint():void" style="text;html=1;align=left;verticalAlign=middle;resizable=0;points=[];autosize=1;strokeColor=none;fillColor=none;" vertex="1" parent="685X49SJKfuo1PtqeQpH-296">
          <mxGeometry y="52" width="180" height="26" as="geometry" />
        </mxCell>
        <mxCell id="685X49SJKfuo1PtqeQpH-299" value="+goBack():void" style="text;html=1;align=left;verticalAlign=middle;resizable=0;points=[];autosize=1;strokeColor=none;fillColor=none;" vertex="1" parent="685X49SJKfuo1PtqeQpH-296">
          <mxGeometry y="78" width="180" height="26" as="geometry" />
        </mxCell>
        <mxCell id="685X49SJKfuo1PtqeQpH-300" value="add_contribution_info_page" style="swimlane;fontStyle=1;align=center;verticalAlign=top;childLayout=stackLayout;horizontal=1;startSize=26;horizontalStack=0;resizeParent=1;resizeParentMax=0;resizeLast=0;collapsible=1;marginBottom=0;whiteSpace=wrap;html=1;fillColor=#647687;strokeColor=#314354;fontColor=#ffffff;" vertex="1" parent="1">
          <mxGeometry x="820" y="684" width="180" height="104" as="geometry">
            <mxRectangle x="691" y="-675" width="135" height="26" as="alternateBounds" />
          </mxGeometry>
        </mxCell>
        <mxCell id="685X49SJKfuo1PtqeQpH-301" value="+show():void" style="text;html=1;align=left;verticalAlign=middle;resizable=0;points=[];autosize=1;strokeColor=none;fillColor=none;" vertex="1" parent="685X49SJKfuo1PtqeQpH-300">
          <mxGeometry y="26" width="180" height="26" as="geometry" />
        </mxCell>
        <mxCell id="685X49SJKfuo1PtqeQpH-302" value="+insertInfo():void" style="text;html=1;align=left;verticalAlign=middle;resizable=0;points=[];autosize=1;strokeColor=none;fillColor=none;" vertex="1" parent="685X49SJKfuo1PtqeQpH-300">
          <mxGeometry y="52" width="180" height="26" as="geometry" />
        </mxCell>
        <mxCell id="685X49SJKfuo1PtqeQpH-303" value="+goBack():void" style="text;html=1;align=left;verticalAlign=middle;resizable=0;points=[];autosize=1;strokeColor=none;fillColor=none;" vertex="1" parent="685X49SJKfuo1PtqeQpH-300">
          <mxGeometry y="78" width="180" height="26" as="geometry" />
        </mxCell>
        <mxCell id="685X49SJKfuo1PtqeQpH-304" value="upload_photos_videos_page" style="swimlane;fontStyle=1;align=center;verticalAlign=top;childLayout=stackLayout;horizontal=1;startSize=26;horizontalStack=0;resizeParent=1;resizeParentMax=0;resizeLast=0;collapsible=1;marginBottom=0;whiteSpace=wrap;html=1;fillColor=#647687;strokeColor=#314354;fontColor=#ffffff;" vertex="1" parent="1">
          <mxGeometry x="1049" y="490" width="180" height="104" as="geometry">
            <mxRectangle x="691" y="-675" width="135" height="26" as="alternateBounds" />
          </mxGeometry>
        </mxCell>
        <mxCell id="685X49SJKfuo1PtqeQpH-305" value="+show():void" style="text;html=1;align=left;verticalAlign=middle;resizable=0;points=[];autosize=1;strokeColor=none;fillColor=none;" vertex="1" parent="685X49SJKfuo1PtqeQpH-304">
          <mxGeometry y="26" width="180" height="26" as="geometry" />
        </mxCell>
        <mxCell id="685X49SJKfuo1PtqeQpH-306" value="+insertMultimedia():void" style="text;html=1;align=left;verticalAlign=middle;resizable=0;points=[];autosize=1;strokeColor=none;fillColor=none;" vertex="1" parent="685X49SJKfuo1PtqeQpH-304">
          <mxGeometry y="52" width="180" height="26" as="geometry" />
        </mxCell>
        <mxCell id="685X49SJKfuo1PtqeQpH-307" value="+goBack():void" style="text;html=1;align=left;verticalAlign=middle;resizable=0;points=[];autosize=1;strokeColor=none;fillColor=none;" vertex="1" parent="685X49SJKfuo1PtqeQpH-304">
          <mxGeometry y="78" width="180" height="26" as="geometry" />
        </mxCell>
        <mxCell id="685X49SJKfuo1PtqeQpH-308" value="available_historic_walks_page" style="swimlane;fontStyle=1;align=center;verticalAlign=top;childLayout=stackLayout;horizontal=1;startSize=26;horizontalStack=0;resizeParent=1;resizeParentMax=0;resizeLast=0;collapsible=1;marginBottom=0;whiteSpace=wrap;html=1;fillColor=#647687;strokeColor=#314354;fontColor=#ffffff;" vertex="1" parent="1">
          <mxGeometry x="1047" y="632" width="180" height="104" as="geometry">
            <mxRectangle x="691" y="-675" width="135" height="26" as="alternateBounds" />
          </mxGeometry>
        </mxCell>
        <mxCell id="685X49SJKfuo1PtqeQpH-309" value="+show():void" style="text;html=1;align=left;verticalAlign=middle;resizable=0;points=[];autosize=1;strokeColor=none;fillColor=none;" vertex="1" parent="685X49SJKfuo1PtqeQpH-308">
          <mxGeometry y="26" width="180" height="26" as="geometry" />
        </mxCell>
        <mxCell id="685X49SJKfuo1PtqeQpH-310" value="+chooseHistoricWalk():void" style="text;html=1;align=left;verticalAlign=middle;resizable=0;points=[];autosize=1;strokeColor=none;fillColor=none;" vertex="1" parent="685X49SJKfuo1PtqeQpH-308">
          <mxGeometry y="52" width="180" height="26" as="geometry" />
        </mxCell>
        <mxCell id="685X49SJKfuo1PtqeQpH-311" value="+goBack():void" style="text;html=1;align=left;verticalAlign=middle;resizable=0;points=[];autosize=1;strokeColor=none;fillColor=none;" vertex="1" parent="685X49SJKfuo1PtqeQpH-308">
          <mxGeometry y="78" width="180" height="26" as="geometry" />
        </mxCell>
        <mxCell id="685X49SJKfuo1PtqeQpH-312" value="historic_walk_info_page" style="swimlane;fontStyle=1;align=center;verticalAlign=top;childLayout=stackLayout;horizontal=1;startSize=26;horizontalStack=0;resizeParent=1;resizeParentMax=0;resizeLast=0;collapsible=1;marginBottom=0;whiteSpace=wrap;html=1;fillColor=#647687;strokeColor=#314354;fontColor=#ffffff;" vertex="1" parent="1">
          <mxGeometry x="1047" y="780" width="180" height="104" as="geometry">
            <mxRectangle x="691" y="-675" width="135" height="26" as="alternateBounds" />
          </mxGeometry>
        </mxCell>
        <mxCell id="685X49SJKfuo1PtqeQpH-313" value="+show():void" style="text;html=1;align=left;verticalAlign=middle;resizable=0;points=[];autosize=1;strokeColor=none;fillColor=none;" vertex="1" parent="685X49SJKfuo1PtqeQpH-312">
          <mxGeometry y="26" width="180" height="26" as="geometry" />
        </mxCell>
        <mxCell id="685X49SJKfuo1PtqeQpH-314" value="+startHistoricWalk():void" style="text;html=1;align=left;verticalAlign=middle;resizable=0;points=[];autosize=1;strokeColor=none;fillColor=none;" vertex="1" parent="685X49SJKfuo1PtqeQpH-312">
          <mxGeometry y="52" width="180" height="26" as="geometry" />
        </mxCell>
        <mxCell id="685X49SJKfuo1PtqeQpH-315" value="+goBack():void" style="text;html=1;align=left;verticalAlign=middle;resizable=0;points=[];autosize=1;strokeColor=none;fillColor=none;" vertex="1" parent="685X49SJKfuo1PtqeQpH-312">
          <mxGeometry y="78" width="180" height="26" as="geometry" />
        </mxCell>
        <mxCell id="685X49SJKfuo1PtqeQpH-316" value="long_historic_walk_page" style="swimlane;fontStyle=1;align=center;verticalAlign=top;childLayout=stackLayout;horizontal=1;startSize=26;horizontalStack=0;resizeParent=1;resizeParentMax=0;resizeLast=0;collapsible=1;marginBottom=0;whiteSpace=wrap;html=1;fillColor=#647687;strokeColor=#314354;fontColor=#ffffff;" vertex="1" parent="1">
          <mxGeometry x="820" y="835" width="180" height="104" as="geometry">
            <mxRectangle x="691" y="-675" width="135" height="26" as="alternateBounds" />
          </mxGeometry>
        </mxCell>
        <mxCell id="685X49SJKfuo1PtqeQpH-317" value="+show():void" style="text;html=1;align=left;verticalAlign=middle;resizable=0;points=[];autosize=1;strokeColor=none;fillColor=none;" vertex="1" parent="685X49SJKfuo1PtqeQpH-316">
          <mxGeometry y="26" width="180" height="26" as="geometry" />
        </mxCell>
        <mxCell id="685X49SJKfuo1PtqeQpH-318" value="+chooseHistoricWalk():void" style="text;html=1;align=left;verticalAlign=middle;resizable=0;points=[];autosize=1;strokeColor=none;fillColor=none;" vertex="1" parent="685X49SJKfuo1PtqeQpH-316">
          <mxGeometry y="52" width="180" height="26" as="geometry" />
        </mxCell>
        <mxCell id="685X49SJKfuo1PtqeQpH-319" value="+goBack():void" style="text;html=1;align=left;verticalAlign=middle;resizable=0;points=[];autosize=1;strokeColor=none;fillColor=none;" vertex="1" parent="685X49SJKfuo1PtqeQpH-316">
          <mxGeometry y="78" width="180" height="26" as="geometry" />
        </mxCell>
        <mxCell id="685X49SJKfuo1PtqeQpH-320" value="long_historic_walk_info_page" style="swimlane;fontStyle=1;align=center;verticalAlign=top;childLayout=stackLayout;horizontal=1;startSize=26;horizontalStack=0;resizeParent=1;resizeParentMax=0;resizeLast=0;collapsible=1;marginBottom=0;whiteSpace=wrap;html=1;fillColor=#647687;strokeColor=#314354;fontColor=#ffffff;" vertex="1" parent="1">
          <mxGeometry x="1051" y="896" width="180" height="104" as="geometry">
            <mxRectangle x="691" y="-675" width="135" height="26" as="alternateBounds" />
          </mxGeometry>
        </mxCell>
        <mxCell id="685X49SJKfuo1PtqeQpH-321" value="+show():void" style="text;html=1;align=left;verticalAlign=middle;resizable=0;points=[];autosize=1;strokeColor=none;fillColor=none;" vertex="1" parent="685X49SJKfuo1PtqeQpH-320">
          <mxGeometry y="26" width="180" height="26" as="geometry" />
        </mxCell>
        <mxCell id="685X49SJKfuo1PtqeQpH-322" value="+getDirections():void" style="text;html=1;align=left;verticalAlign=middle;resizable=0;points=[];autosize=1;strokeColor=none;fillColor=none;" vertex="1" parent="685X49SJKfuo1PtqeQpH-320">
          <mxGeometry y="52" width="180" height="26" as="geometry" />
        </mxCell>
        <mxCell id="685X49SJKfuo1PtqeQpH-323" value="+goBack():void" style="text;html=1;align=left;verticalAlign=middle;resizable=0;points=[];autosize=1;strokeColor=none;fillColor=none;" vertex="1" parent="685X49SJKfuo1PtqeQpH-320">
          <mxGeometry y="78" width="180" height="26" as="geometry" />
        </mxCell>
        <mxCell id="685X49SJKfuo1PtqeQpH-324" value="navigate_to_historic_walk_page" style="swimlane;fontStyle=1;align=center;verticalAlign=top;childLayout=stackLayout;horizontal=1;startSize=26;horizontalStack=0;resizeParent=1;resizeParentMax=0;resizeLast=0;collapsible=1;marginBottom=0;whiteSpace=wrap;html=1;fillColor=#647687;strokeColor=#314354;fontColor=#ffffff;" vertex="1" parent="1">
          <mxGeometry x="822" y="969" width="190" height="78" as="geometry">
            <mxRectangle x="691" y="-675" width="135" height="26" as="alternateBounds" />
          </mxGeometry>
        </mxCell>
        <mxCell id="685X49SJKfuo1PtqeQpH-325" value="+show():void" style="text;html=1;align=left;verticalAlign=middle;resizable=0;points=[];autosize=1;strokeColor=none;fillColor=none;" vertex="1" parent="685X49SJKfuo1PtqeQpH-324">
          <mxGeometry y="26" width="190" height="26" as="geometry" />
        </mxCell>
        <mxCell id="685X49SJKfuo1PtqeQpH-326" value="+goBack():void" style="text;html=1;align=left;verticalAlign=middle;resizable=0;points=[];autosize=1;strokeColor=none;fillColor=none;" vertex="1" parent="685X49SJKfuo1PtqeQpH-324">
          <mxGeometry y="52" width="190" height="26" as="geometry" />
        </mxCell>
        <mxCell id="685X49SJKfuo1PtqeQpH-327" value="complete_page" style="swimlane;fontStyle=1;align=center;verticalAlign=top;childLayout=stackLayout;horizontal=1;startSize=26;horizontalStack=0;resizeParent=1;resizeParentMax=0;resizeLast=0;collapsible=1;marginBottom=0;whiteSpace=wrap;html=1;fillColor=#647687;strokeColor=#314354;fontColor=#ffffff;" vertex="1" parent="1">
          <mxGeometry x="825" y="1079" width="190" height="78" as="geometry">
            <mxRectangle x="691" y="-675" width="135" height="26" as="alternateBounds" />
          </mxGeometry>
        </mxCell>
        <mxCell id="685X49SJKfuo1PtqeQpH-328" value="+show():void" style="text;html=1;align=left;verticalAlign=middle;resizable=0;points=[];autosize=1;strokeColor=none;fillColor=none;" vertex="1" parent="685X49SJKfuo1PtqeQpH-327">
          <mxGeometry y="26" width="190" height="26" as="geometry" />
        </mxCell>
        <mxCell id="685X49SJKfuo1PtqeQpH-329" value="+goBack():void" style="text;html=1;align=left;verticalAlign=middle;resizable=0;points=[];autosize=1;strokeColor=none;fillColor=none;" vertex="1" parent="685X49SJKfuo1PtqeQpH-327">
          <mxGeometry y="52" width="190" height="26" as="geometry" />
        </mxCell>
        <mxCell id="685X49SJKfuo1PtqeQpH-330" value="visitings_history_page" style="swimlane;fontStyle=1;align=center;verticalAlign=top;childLayout=stackLayout;horizontal=1;startSize=26;horizontalStack=0;resizeParent=1;resizeParentMax=0;resizeLast=0;collapsible=1;marginBottom=0;whiteSpace=wrap;html=1;fillColor=#647687;strokeColor=#314354;fontColor=#ffffff;" vertex="1" parent="1">
          <mxGeometry x="-523" y="-590" width="180" height="104" as="geometry">
            <mxRectangle x="694" y="-532" width="135" height="26" as="alternateBounds" />
          </mxGeometry>
        </mxCell>
        <mxCell id="685X49SJKfuo1PtqeQpH-331" value="+show():void" style="text;html=1;align=left;verticalAlign=middle;resizable=0;points=[];autosize=1;strokeColor=none;fillColor=none;" vertex="1" parent="685X49SJKfuo1PtqeQpH-330">
          <mxGeometry y="26" width="180" height="26" as="geometry" />
        </mxCell>
        <mxCell id="685X49SJKfuo1PtqeQpH-332" value="+chooseHistoricPoint():void" style="text;html=1;align=left;verticalAlign=middle;resizable=0;points=[];autosize=1;strokeColor=none;fillColor=none;" vertex="1" parent="685X49SJKfuo1PtqeQpH-330">
          <mxGeometry y="52" width="180" height="26" as="geometry" />
        </mxCell>
        <mxCell id="685X49SJKfuo1PtqeQpH-333" value="+goBack():void" style="text;html=1;align=left;verticalAlign=middle;resizable=0;points=[];autosize=1;strokeColor=none;fillColor=none;" vertex="1" parent="685X49SJKfuo1PtqeQpH-330">
          <mxGeometry y="78" width="180" height="26" as="geometry" />
        </mxCell>
        <mxCell id="685X49SJKfuo1PtqeQpH-334" value="historic_point_rating_page" style="swimlane;fontStyle=1;align=center;verticalAlign=top;childLayout=stackLayout;horizontal=1;startSize=26;horizontalStack=0;resizeParent=1;resizeParentMax=0;resizeLast=0;collapsible=1;marginBottom=0;whiteSpace=wrap;html=1;fillColor=#647687;strokeColor=#314354;fontColor=#ffffff;" vertex="1" parent="1">
          <mxGeometry x="-526" y="-461" width="180" height="104" as="geometry">
            <mxRectangle x="694" y="-532" width="135" height="26" as="alternateBounds" />
          </mxGeometry>
        </mxCell>
        <mxCell id="685X49SJKfuo1PtqeQpH-335" value="+show():void" style="text;html=1;align=left;verticalAlign=middle;resizable=0;points=[];autosize=1;strokeColor=none;fillColor=none;" vertex="1" parent="685X49SJKfuo1PtqeQpH-334">
          <mxGeometry y="26" width="180" height="26" as="geometry" />
        </mxCell>
        <mxCell id="685X49SJKfuo1PtqeQpH-336" value="+insertRatingInfo():void" style="text;html=1;align=left;verticalAlign=middle;resizable=0;points=[];autosize=1;strokeColor=none;fillColor=none;" vertex="1" parent="685X49SJKfuo1PtqeQpH-334">
          <mxGeometry y="52" width="180" height="26" as="geometry" />
        </mxCell>
        <mxCell id="685X49SJKfuo1PtqeQpH-337" value="+goBack():void" style="text;html=1;align=left;verticalAlign=middle;resizable=0;points=[];autosize=1;strokeColor=none;fillColor=none;" vertex="1" parent="685X49SJKfuo1PtqeQpH-334">
          <mxGeometry y="78" width="180" height="26" as="geometry" />
        </mxCell>
        <mxCell id="685X49SJKfuo1PtqeQpH-338" value="cities_with_contrbutions_page" style="swimlane;fontStyle=1;align=center;verticalAlign=top;childLayout=stackLayout;horizontal=1;startSize=26;horizontalStack=0;resizeParent=1;resizeParentMax=0;resizeLast=0;collapsible=1;marginBottom=0;whiteSpace=wrap;html=1;fillColor=#647687;strokeColor=#314354;fontColor=#ffffff;" vertex="1" parent="1">
          <mxGeometry x="-274" y="-606" width="196" height="104" as="geometry">
            <mxRectangle x="694" y="-532" width="135" height="26" as="alternateBounds" />
          </mxGeometry>
        </mxCell>
        <mxCell id="685X49SJKfuo1PtqeQpH-339" value="+show():void" style="text;html=1;align=left;verticalAlign=middle;resizable=0;points=[];autosize=1;strokeColor=none;fillColor=none;" vertex="1" parent="685X49SJKfuo1PtqeQpH-338">
          <mxGeometry y="26" width="196" height="26" as="geometry" />
        </mxCell>
        <mxCell id="685X49SJKfuo1PtqeQpH-340" value="+chooseCity():void" style="text;html=1;align=left;verticalAlign=middle;resizable=0;points=[];autosize=1;strokeColor=none;fillColor=none;" vertex="1" parent="685X49SJKfuo1PtqeQpH-338">
          <mxGeometry y="52" width="196" height="26" as="geometry" />
        </mxCell>
        <mxCell id="685X49SJKfuo1PtqeQpH-341" value="+goBack():void" style="text;html=1;align=left;verticalAlign=middle;resizable=0;points=[];autosize=1;strokeColor=none;fillColor=none;" vertex="1" parent="685X49SJKfuo1PtqeQpH-338">
          <mxGeometry y="78" width="196" height="26" as="geometry" />
        </mxCell>
        <mxCell id="685X49SJKfuo1PtqeQpH-342" value="contrbutions_page" style="swimlane;fontStyle=1;align=center;verticalAlign=top;childLayout=stackLayout;horizontal=1;startSize=26;horizontalStack=0;resizeParent=1;resizeParentMax=0;resizeLast=0;collapsible=1;marginBottom=0;whiteSpace=wrap;html=1;fillColor=#647687;strokeColor=#314354;fontColor=#ffffff;" vertex="1" parent="1">
          <mxGeometry x="-282" y="-471" width="196" height="104" as="geometry">
            <mxRectangle x="694" y="-532" width="135" height="26" as="alternateBounds" />
          </mxGeometry>
        </mxCell>
        <mxCell id="685X49SJKfuo1PtqeQpH-343" value="+show():void" style="text;html=1;align=left;verticalAlign=middle;resizable=0;points=[];autosize=1;strokeColor=none;fillColor=none;" vertex="1" parent="685X49SJKfuo1PtqeQpH-342">
          <mxGeometry y="26" width="196" height="26" as="geometry" />
        </mxCell>
        <mxCell id="685X49SJKfuo1PtqeQpH-344" value="+chooseContribution():void" style="text;html=1;align=left;verticalAlign=middle;resizable=0;points=[];autosize=1;strokeColor=none;fillColor=none;" vertex="1" parent="685X49SJKfuo1PtqeQpH-342">
          <mxGeometry y="52" width="196" height="26" as="geometry" />
        </mxCell>
        <mxCell id="685X49SJKfuo1PtqeQpH-345" value="+goBack():void" style="text;html=1;align=left;verticalAlign=middle;resizable=0;points=[];autosize=1;strokeColor=none;fillColor=none;" vertex="1" parent="685X49SJKfuo1PtqeQpH-342">
          <mxGeometry y="78" width="196" height="26" as="geometry" />
        </mxCell>
        <mxCell id="685X49SJKfuo1PtqeQpH-346" value="contrbution_info_page" style="swimlane;fontStyle=1;align=center;verticalAlign=top;childLayout=stackLayout;horizontal=1;startSize=26;horizontalStack=0;resizeParent=1;resizeParentMax=0;resizeLast=0;collapsible=1;marginBottom=0;whiteSpace=wrap;html=1;fillColor=#647687;strokeColor=#314354;fontColor=#ffffff;" vertex="1" parent="1">
          <mxGeometry x="-531" y="-335" width="203" height="104" as="geometry">
            <mxRectangle x="694" y="-532" width="135" height="26" as="alternateBounds" />
          </mxGeometry>
        </mxCell>
        <mxCell id="685X49SJKfuo1PtqeQpH-347" value="+show():void" style="text;html=1;align=left;verticalAlign=middle;resizable=0;points=[];autosize=1;strokeColor=none;fillColor=none;" vertex="1" parent="685X49SJKfuo1PtqeQpH-346">
          <mxGeometry y="26" width="203" height="26" as="geometry" />
        </mxCell>
        <mxCell id="685X49SJKfuo1PtqeQpH-348" value="+chooseApprovalOrRejection():void" style="text;html=1;align=left;verticalAlign=middle;resizable=0;points=[];autosize=1;strokeColor=none;fillColor=none;" vertex="1" parent="685X49SJKfuo1PtqeQpH-346">
          <mxGeometry y="52" width="203" height="26" as="geometry" />
        </mxCell>
        <mxCell id="685X49SJKfuo1PtqeQpH-349" value="+goBack():void" style="text;html=1;align=left;verticalAlign=middle;resizable=0;points=[];autosize=1;strokeColor=none;fillColor=none;" vertex="1" parent="685X49SJKfuo1PtqeQpH-346">
          <mxGeometry y="78" width="203" height="26" as="geometry" />
        </mxCell>
        <mxCell id="685X49SJKfuo1PtqeQpH-350" value="tours_search_page" style="swimlane;fontStyle=1;align=center;verticalAlign=top;childLayout=stackLayout;horizontal=1;startSize=26;horizontalStack=0;resizeParent=1;resizeParentMax=0;resizeLast=0;collapsible=1;marginBottom=0;whiteSpace=wrap;html=1;fillColor=#647687;strokeColor=#314354;fontColor=#ffffff;" vertex="1" parent="1">
          <mxGeometry x="-1131" y="-268" width="196" height="104" as="geometry">
            <mxRectangle x="694" y="-532" width="135" height="26" as="alternateBounds" />
          </mxGeometry>
        </mxCell>
        <mxCell id="685X49SJKfuo1PtqeQpH-351" value="+show():void" style="text;html=1;align=left;verticalAlign=middle;resizable=0;points=[];autosize=1;strokeColor=none;fillColor=none;" vertex="1" parent="685X49SJKfuo1PtqeQpH-350">
          <mxGeometry y="26" width="196" height="26" as="geometry" />
        </mxCell>
        <mxCell id="685X49SJKfuo1PtqeQpH-352" value="+insertCityAndDates():void" style="text;html=1;align=left;verticalAlign=middle;resizable=0;points=[];autosize=1;strokeColor=none;fillColor=none;" vertex="1" parent="685X49SJKfuo1PtqeQpH-350">
          <mxGeometry y="52" width="196" height="26" as="geometry" />
        </mxCell>
        <mxCell id="685X49SJKfuo1PtqeQpH-353" value="+goBack():void" style="text;html=1;align=left;verticalAlign=middle;resizable=0;points=[];autosize=1;strokeColor=none;fillColor=none;" vertex="1" parent="685X49SJKfuo1PtqeQpH-350">
          <mxGeometry y="78" width="196" height="26" as="geometry" />
        </mxCell>
        <mxCell id="685X49SJKfuo1PtqeQpH-354" value="tours_page" style="swimlane;fontStyle=1;align=center;verticalAlign=top;childLayout=stackLayout;horizontal=1;startSize=26;horizontalStack=0;resizeParent=1;resizeParentMax=0;resizeLast=0;collapsible=1;marginBottom=0;whiteSpace=wrap;html=1;fillColor=#647687;strokeColor=#314354;fontColor=#ffffff;" vertex="1" parent="1">
          <mxGeometry x="-1133" y="-135" width="196" height="104" as="geometry">
            <mxRectangle x="694" y="-532" width="135" height="26" as="alternateBounds" />
          </mxGeometry>
        </mxCell>
        <mxCell id="685X49SJKfuo1PtqeQpH-355" value="+show():void" style="text;html=1;align=left;verticalAlign=middle;resizable=0;points=[];autosize=1;strokeColor=none;fillColor=none;" vertex="1" parent="685X49SJKfuo1PtqeQpH-354">
          <mxGeometry y="26" width="196" height="26" as="geometry" />
        </mxCell>
        <mxCell id="685X49SJKfuo1PtqeQpH-356" value="+chooseTour():void" style="text;html=1;align=left;verticalAlign=middle;resizable=0;points=[];autosize=1;strokeColor=none;fillColor=none;" vertex="1" parent="685X49SJKfuo1PtqeQpH-354">
          <mxGeometry y="52" width="196" height="26" as="geometry" />
        </mxCell>
        <mxCell id="685X49SJKfuo1PtqeQpH-357" value="+goBack():void" style="text;html=1;align=left;verticalAlign=middle;resizable=0;points=[];autosize=1;strokeColor=none;fillColor=none;" vertex="1" parent="685X49SJKfuo1PtqeQpH-354">
          <mxGeometry y="78" width="196" height="26" as="geometry" />
        </mxCell>
        <mxCell id="685X49SJKfuo1PtqeQpH-358" value="tour_info_page" style="swimlane;fontStyle=1;align=center;verticalAlign=top;childLayout=stackLayout;horizontal=1;startSize=26;horizontalStack=0;resizeParent=1;resizeParentMax=0;resizeLast=0;collapsible=1;marginBottom=0;whiteSpace=wrap;html=1;fillColor=#647687;strokeColor=#314354;fontColor=#ffffff;" vertex="1" parent="1">
          <mxGeometry x="-1370" y="-374" width="196" height="104" as="geometry">
            <mxRectangle x="694" y="-532" width="135" height="26" as="alternateBounds" />
          </mxGeometry>
        </mxCell>
        <mxCell id="685X49SJKfuo1PtqeQpH-359" value="+show():void" style="text;html=1;align=left;verticalAlign=middle;resizable=0;points=[];autosize=1;strokeColor=none;fillColor=none;" vertex="1" parent="685X49SJKfuo1PtqeQpH-358">
          <mxGeometry y="26" width="196" height="26" as="geometry" />
        </mxCell>
        <mxCell id="685X49SJKfuo1PtqeQpH-360" value="+chooseReservation():void" style="text;html=1;align=left;verticalAlign=middle;resizable=0;points=[];autosize=1;strokeColor=none;fillColor=none;" vertex="1" parent="685X49SJKfuo1PtqeQpH-358">
          <mxGeometry y="52" width="196" height="26" as="geometry" />
        </mxCell>
        <mxCell id="685X49SJKfuo1PtqeQpH-361" value="+goBack():void" style="text;html=1;align=left;verticalAlign=middle;resizable=0;points=[];autosize=1;strokeColor=none;fillColor=none;" vertex="1" parent="685X49SJKfuo1PtqeQpH-358">
          <mxGeometry y="78" width="196" height="26" as="geometry" />
        </mxCell>
        <mxCell id="685X49SJKfuo1PtqeQpH-362" value="reservation_creation_page" style="swimlane;fontStyle=1;align=center;verticalAlign=top;childLayout=stackLayout;horizontal=1;startSize=26;horizontalStack=0;resizeParent=1;resizeParentMax=0;resizeLast=0;collapsible=1;marginBottom=0;whiteSpace=wrap;html=1;fillColor=#647687;strokeColor=#314354;fontColor=#ffffff;" vertex="1" parent="1">
          <mxGeometry x="-1374" y="-217" width="196" height="104" as="geometry">
            <mxRectangle x="694" y="-532" width="135" height="26" as="alternateBounds" />
          </mxGeometry>
        </mxCell>
        <mxCell id="685X49SJKfuo1PtqeQpH-363" value="+show():void" style="text;html=1;align=left;verticalAlign=middle;resizable=0;points=[];autosize=1;strokeColor=none;fillColor=none;" vertex="1" parent="685X49SJKfuo1PtqeQpH-362">
          <mxGeometry y="26" width="196" height="26" as="geometry" />
        </mxCell>
        <mxCell id="685X49SJKfuo1PtqeQpH-364" value="+insertPersonsNumber():void" style="text;html=1;align=left;verticalAlign=middle;resizable=0;points=[];autosize=1;strokeColor=none;fillColor=none;" vertex="1" parent="685X49SJKfuo1PtqeQpH-362">
          <mxGeometry y="52" width="196" height="26" as="geometry" />
        </mxCell>
        <mxCell id="685X49SJKfuo1PtqeQpH-365" value="+goBack():void" style="text;html=1;align=left;verticalAlign=middle;resizable=0;points=[];autosize=1;strokeColor=none;fillColor=none;" vertex="1" parent="685X49SJKfuo1PtqeQpH-362">
          <mxGeometry y="78" width="196" height="26" as="geometry" />
        </mxCell>
        <mxCell id="685X49SJKfuo1PtqeQpH-366" value="historic_points_with_report_page" style="swimlane;fontStyle=1;align=center;verticalAlign=top;childLayout=stackLayout;horizontal=1;startSize=26;horizontalStack=0;resizeParent=1;resizeParentMax=0;resizeLast=0;collapsible=1;marginBottom=0;whiteSpace=wrap;html=1;fillColor=#647687;strokeColor=#314354;fontColor=#ffffff;" vertex="1" parent="1">
          <mxGeometry x="-1402" y="700" width="220" height="104" as="geometry">
            <mxRectangle x="694" y="-532" width="135" height="26" as="alternateBounds" />
          </mxGeometry>
        </mxCell>
        <mxCell id="685X49SJKfuo1PtqeQpH-367" value="+show():void" style="text;html=1;align=left;verticalAlign=middle;resizable=0;points=[];autosize=1;strokeColor=none;fillColor=none;" vertex="1" parent="685X49SJKfuo1PtqeQpH-366">
          <mxGeometry y="26" width="220" height="26" as="geometry" />
        </mxCell>
        <mxCell id="685X49SJKfuo1PtqeQpH-368" value="+chooseHistoricPoint():void" style="text;html=1;align=left;verticalAlign=middle;resizable=0;points=[];autosize=1;strokeColor=none;fillColor=none;" vertex="1" parent="685X49SJKfuo1PtqeQpH-366">
          <mxGeometry y="52" width="220" height="26" as="geometry" />
        </mxCell>
        <mxCell id="685X49SJKfuo1PtqeQpH-369" value="+goBack():void" style="text;html=1;align=left;verticalAlign=middle;resizable=0;points=[];autosize=1;strokeColor=none;fillColor=none;" vertex="1" parent="685X49SJKfuo1PtqeQpH-366">
          <mxGeometry y="78" width="220" height="26" as="geometry" />
        </mxCell>
        <mxCell id="685X49SJKfuo1PtqeQpH-370" value="info_and_reports_page" style="swimlane;fontStyle=1;align=center;verticalAlign=top;childLayout=stackLayout;horizontal=1;startSize=26;horizontalStack=0;resizeParent=1;resizeParentMax=0;resizeLast=0;collapsible=1;marginBottom=0;whiteSpace=wrap;html=1;fillColor=#647687;strokeColor=#314354;fontColor=#ffffff;" vertex="1" parent="1">
          <mxGeometry x="-1402" y="832" width="220" height="104" as="geometry">
            <mxRectangle x="694" y="-532" width="135" height="26" as="alternateBounds" />
          </mxGeometry>
        </mxCell>
        <mxCell id="685X49SJKfuo1PtqeQpH-371" value="+show():void" style="text;html=1;align=left;verticalAlign=middle;resizable=0;points=[];autosize=1;strokeColor=none;fillColor=none;" vertex="1" parent="685X49SJKfuo1PtqeQpH-370">
          <mxGeometry y="26" width="220" height="26" as="geometry" />
        </mxCell>
        <mxCell id="685X49SJKfuo1PtqeQpH-372" value="+chooseCorrection():void" style="text;html=1;align=left;verticalAlign=middle;resizable=0;points=[];autosize=1;strokeColor=none;fillColor=none;" vertex="1" parent="685X49SJKfuo1PtqeQpH-370">
          <mxGeometry y="52" width="220" height="26" as="geometry" />
        </mxCell>
        <mxCell id="685X49SJKfuo1PtqeQpH-373" value="+goBack():void" style="text;html=1;align=left;verticalAlign=middle;resizable=0;points=[];autosize=1;strokeColor=none;fillColor=none;" vertex="1" parent="685X49SJKfuo1PtqeQpH-370">
          <mxGeometry y="78" width="220" height="26" as="geometry" />
        </mxCell>
        <mxCell id="685X49SJKfuo1PtqeQpH-374" value="corrections_page" style="swimlane;fontStyle=1;align=center;verticalAlign=top;childLayout=stackLayout;horizontal=1;startSize=26;horizontalStack=0;resizeParent=1;resizeParentMax=0;resizeLast=0;collapsible=1;marginBottom=0;whiteSpace=wrap;html=1;fillColor=#647687;strokeColor=#314354;fontColor=#ffffff;" vertex="1" parent="1">
          <mxGeometry x="-1121" y="750" width="220" height="104" as="geometry">
            <mxRectangle x="694" y="-532" width="135" height="26" as="alternateBounds" />
          </mxGeometry>
        </mxCell>
        <mxCell id="685X49SJKfuo1PtqeQpH-375" value="+show():void" style="text;html=1;align=left;verticalAlign=middle;resizable=0;points=[];autosize=1;strokeColor=none;fillColor=none;" vertex="1" parent="685X49SJKfuo1PtqeQpH-374">
          <mxGeometry y="26" width="220" height="26" as="geometry" />
        </mxCell>
        <mxCell id="685X49SJKfuo1PtqeQpH-376" value="+insertText():void" style="text;html=1;align=left;verticalAlign=middle;resizable=0;points=[];autosize=1;strokeColor=none;fillColor=none;" vertex="1" parent="685X49SJKfuo1PtqeQpH-374">
          <mxGeometry y="52" width="220" height="26" as="geometry" />
        </mxCell>
        <mxCell id="685X49SJKfuo1PtqeQpH-377" value="+goBack():void" style="text;html=1;align=left;verticalAlign=middle;resizable=0;points=[];autosize=1;strokeColor=none;fillColor=none;" vertex="1" parent="685X49SJKfuo1PtqeQpH-374">
          <mxGeometry y="78" width="220" height="26" as="geometry" />
        </mxCell>
        <mxCell id="685X49SJKfuo1PtqeQpH-378" value="search_area_page" style="swimlane;fontStyle=1;align=center;verticalAlign=top;childLayout=stackLayout;horizontal=1;startSize=26;horizontalStack=0;resizeParent=1;resizeParentMax=0;resizeLast=0;collapsible=1;marginBottom=0;whiteSpace=wrap;html=1;fillColor=#647687;strokeColor=#314354;fontColor=#ffffff;" vertex="1" parent="1">
          <mxGeometry x="-1125" y="887" width="220" height="104" as="geometry">
            <mxRectangle x="694" y="-532" width="135" height="26" as="alternateBounds" />
          </mxGeometry>
        </mxCell>
        <mxCell id="685X49SJKfuo1PtqeQpH-379" value="+show():void" style="text;html=1;align=left;verticalAlign=middle;resizable=0;points=[];autosize=1;strokeColor=none;fillColor=none;" vertex="1" parent="685X49SJKfuo1PtqeQpH-378">
          <mxGeometry y="26" width="220" height="26" as="geometry" />
        </mxCell>
        <mxCell id="685X49SJKfuo1PtqeQpH-380" value="+searchArea():void" style="text;html=1;align=left;verticalAlign=middle;resizable=0;points=[];autosize=1;strokeColor=none;fillColor=none;" vertex="1" parent="685X49SJKfuo1PtqeQpH-378">
          <mxGeometry y="52" width="220" height="26" as="geometry" />
        </mxCell>
        <mxCell id="685X49SJKfuo1PtqeQpH-381" value="+goBack():void" style="text;html=1;align=left;verticalAlign=middle;resizable=0;points=[];autosize=1;strokeColor=none;fillColor=none;" vertex="1" parent="685X49SJKfuo1PtqeQpH-378">
          <mxGeometry y="78" width="220" height="26" as="geometry" />
        </mxCell>
        <mxCell id="685X49SJKfuo1PtqeQpH-382" value="add_historic_point_page" style="swimlane;fontStyle=1;align=center;verticalAlign=top;childLayout=stackLayout;horizontal=1;startSize=26;horizontalStack=0;resizeParent=1;resizeParentMax=0;resizeLast=0;collapsible=1;marginBottom=0;whiteSpace=wrap;html=1;fillColor=#647687;strokeColor=#314354;fontColor=#ffffff;" vertex="1" parent="1">
          <mxGeometry x="444" y="-405" width="180" height="104" as="geometry">
            <mxRectangle x="691" y="-675" width="135" height="26" as="alternateBounds" />
          </mxGeometry>
        </mxCell>
        <mxCell id="685X49SJKfuo1PtqeQpH-383" value="+show():void" style="text;html=1;align=left;verticalAlign=middle;resizable=0;points=[];autosize=1;strokeColor=none;fillColor=none;" vertex="1" parent="685X49SJKfuo1PtqeQpH-382">
          <mxGeometry y="26" width="180" height="26" as="geometry" />
        </mxCell>
        <mxCell id="685X49SJKfuo1PtqeQpH-384" value="+uploadSoundClip():void" style="text;html=1;align=left;verticalAlign=middle;resizable=0;points=[];autosize=1;strokeColor=none;fillColor=none;" vertex="1" parent="685X49SJKfuo1PtqeQpH-382">
          <mxGeometry y="52" width="180" height="26" as="geometry" />
        </mxCell>
        <mxCell id="685X49SJKfuo1PtqeQpH-385" value="+goBack():void" style="text;html=1;align=left;verticalAlign=middle;resizable=0;points=[];autosize=1;strokeColor=none;fillColor=none;" vertex="1" parent="685X49SJKfuo1PtqeQpH-382">
          <mxGeometry y="78" width="180" height="26" as="geometry" />
        </mxCell>
        <mxCell id="685X49SJKfuo1PtqeQpH-386" value="remove_historic_point_page" style="swimlane;fontStyle=1;align=center;verticalAlign=top;childLayout=stackLayout;horizontal=1;startSize=26;horizontalStack=0;resizeParent=1;resizeParentMax=0;resizeLast=0;collapsible=1;marginBottom=0;whiteSpace=wrap;html=1;fillColor=#647687;strokeColor=#314354;fontColor=#ffffff;" vertex="1" parent="1">
          <mxGeometry x="448" y="-574" width="180" height="104" as="geometry">
            <mxRectangle x="691" y="-675" width="135" height="26" as="alternateBounds" />
          </mxGeometry>
        </mxCell>
        <mxCell id="685X49SJKfuo1PtqeQpH-387" value="+show():void" style="text;html=1;align=left;verticalAlign=middle;resizable=0;points=[];autosize=1;strokeColor=none;fillColor=none;" vertex="1" parent="685X49SJKfuo1PtqeQpH-386">
          <mxGeometry y="26" width="180" height="26" as="geometry" />
        </mxCell>
        <mxCell id="685X49SJKfuo1PtqeQpH-388" value="+removeHistoricPoint():void" style="text;html=1;align=left;verticalAlign=middle;resizable=0;points=[];autosize=1;strokeColor=none;fillColor=none;" vertex="1" parent="685X49SJKfuo1PtqeQpH-386">
          <mxGeometry y="52" width="180" height="26" as="geometry" />
        </mxCell>
        <mxCell id="685X49SJKfuo1PtqeQpH-389" value="+goBack():void" style="text;html=1;align=left;verticalAlign=middle;resizable=0;points=[];autosize=1;strokeColor=none;fillColor=none;" vertex="1" parent="685X49SJKfuo1PtqeQpH-386">
          <mxGeometry y="78" width="180" height="26" as="geometry" />
        </mxCell>
        <mxCell id="685X49SJKfuo1PtqeQpH-390" value="add_historic_walk_info_page" style="swimlane;fontStyle=1;align=center;verticalAlign=top;childLayout=stackLayout;horizontal=1;startSize=26;horizontalStack=0;resizeParent=1;resizeParentMax=0;resizeLast=0;collapsible=1;marginBottom=0;whiteSpace=wrap;html=1;fillColor=#647687;strokeColor=#314354;fontColor=#ffffff;" vertex="1" parent="1">
          <mxGeometry x="444" y="-728" width="180" height="104" as="geometry">
            <mxRectangle x="691" y="-675" width="135" height="26" as="alternateBounds" />
          </mxGeometry>
        </mxCell>
        <mxCell id="685X49SJKfuo1PtqeQpH-391" value="+show():void" style="text;html=1;align=left;verticalAlign=middle;resizable=0;points=[];autosize=1;strokeColor=none;fillColor=none;" vertex="1" parent="685X49SJKfuo1PtqeQpH-390">
          <mxGeometry y="26" width="180" height="26" as="geometry" />
        </mxCell>
        <mxCell id="685X49SJKfuo1PtqeQpH-392" value="+addInfo():void" style="text;html=1;align=left;verticalAlign=middle;resizable=0;points=[];autosize=1;strokeColor=none;fillColor=none;" vertex="1" parent="685X49SJKfuo1PtqeQpH-390">
          <mxGeometry y="52" width="180" height="26" as="geometry" />
        </mxCell>
        <mxCell id="685X49SJKfuo1PtqeQpH-393" value="+goBack():void" style="text;html=1;align=left;verticalAlign=middle;resizable=0;points=[];autosize=1;strokeColor=none;fillColor=none;" vertex="1" parent="685X49SJKfuo1PtqeQpH-390">
          <mxGeometry y="78" width="180" height="26" as="geometry" />
        </mxCell>
        <mxCell id="685X49SJKfuo1PtqeQpH-394" value="rating_modification_page" style="swimlane;fontStyle=1;align=center;verticalAlign=top;childLayout=stackLayout;horizontal=1;startSize=26;horizontalStack=0;resizeParent=1;resizeParentMax=0;resizeLast=0;collapsible=1;marginBottom=0;whiteSpace=wrap;html=1;fillColor=#647687;strokeColor=#314354;fontColor=#ffffff;" vertex="1" parent="1">
          <mxGeometry x="-285" y="-338" width="196" height="78" as="geometry">
            <mxRectangle x="694" y="-532" width="135" height="26" as="alternateBounds" />
          </mxGeometry>
        </mxCell>
        <mxCell id="685X49SJKfuo1PtqeQpH-395" value="+goBack():void" style="text;html=1;align=left;verticalAlign=middle;resizable=0;points=[];autosize=1;strokeColor=none;fillColor=none;" vertex="1" parent="685X49SJKfuo1PtqeQpH-394">
          <mxGeometry y="26" width="196" height="26" as="geometry" />
        </mxCell>
        <mxCell id="685X49SJKfuo1PtqeQpH-396" value="+show()" style="text;html=1;align=left;verticalAlign=middle;resizable=0;points=[];autosize=1;strokeColor=none;fillColor=none;" vertex="1" parent="685X49SJKfuo1PtqeQpH-394">
          <mxGeometry y="52" width="196" height="26" as="geometry" />
        </mxCell>
        <mxCell id="685X49SJKfuo1PtqeQpH-397" value="rating_modification_page" style="swimlane;fontStyle=1;align=center;verticalAlign=top;childLayout=stackLayout;horizontal=1;startSize=26;horizontalStack=0;resizeParent=1;resizeParentMax=0;resizeLast=0;collapsible=1;marginBottom=0;whiteSpace=wrap;html=1;fillColor=#647687;strokeColor=#314354;fontColor=#ffffff;" vertex="1" parent="1">
          <mxGeometry x="-1688" y="754" width="220" height="78" as="geometry">
            <mxRectangle x="694" y="-532" width="135" height="26" as="alternateBounds" />
          </mxGeometry>
        </mxCell>
        <mxCell id="685X49SJKfuo1PtqeQpH-398" value="+show():void" style="text;html=1;align=left;verticalAlign=middle;resizable=0;points=[];autosize=1;strokeColor=none;fillColor=none;" vertex="1" parent="685X49SJKfuo1PtqeQpH-397">
          <mxGeometry y="26" width="220" height="26" as="geometry" />
        </mxCell>
        <mxCell id="685X49SJKfuo1PtqeQpH-399" value="+goBack():void" style="text;html=1;align=left;verticalAlign=middle;resizable=0;points=[];autosize=1;strokeColor=none;fillColor=none;" vertex="1" parent="685X49SJKfuo1PtqeQpH-397">
          <mxGeometry y="52" width="220" height="26" as="geometry" />
        </mxCell>
      </root>
    </mxGraphModel>
  </diagram>
</mxfile>
